<svg xmlns="http://www.w3.org/2000/svg" xmlns:xlink="http://www.w3.org/1999/xlink" width="500" zoomAndPan="magnify" viewBox="0 0 375 374.999991" height="500" preserveAspectRatio="xMidYMid meet" version="1.0"><defs><g/><clipPath id="67125a25b9"><path d="M 86.316406 12.925781 L 300 12.925781 L 300 311 L 86.316406 311 Z M 86.316406 12.925781 " clip-rule="nonzero"/></clipPath><clipPath id="d798d53d8b"><path d="M 100 264 L 286 264 L 286 362.425781 L 100 362.425781 Z M 100 264 " clip-rule="nonzero"/></clipPath></defs><g clip-path="url(#67125a25b9)"><path fill="#ffffff" d="M 149.011719 90.539062 C 149.011719 66.238281 168.703125 46.550781 193.003906 46.550781 C 217.316406 46.550781 237.011719 66.238281 237.011719 90.539062 C 237.011719 114.851562 217.316406 134.546875 193.003906 134.542969 C 168.703125 134.542969 149.011719 114.851562 149.011719 90.539062 Z M 299.492188 119.378906 C 299.492188 60.589844 251.816406 12.917969 193.011719 12.917969 C 134.226562 12.917969 86.550781 60.589844 86.550781 119.378906 C 86.550781 178.183594 193.011719 310.238281 193.011719 310.238281 C 193.011719 310.238281 299.492188 178.183594 299.492188 119.378906 " fill-opacity="1" fill-rule="nonzero"/></g><g clip-path="url(#d798d53d8b)"><path fill="#ffffff" d="M 251.9375 265.566406 C 246.117188 262.816406 239.117188 265.304688 236.351562 271.136719 C 233.570312 276.984375 236.074219 283.96875 241.917969 286.734375 C 254.542969 292.714844 262.078125 300.585938 262.078125 307.792969 C 262.078125 322.367188 232.542969 338.664062 193.023438 338.664062 C 153.503906 338.664062 123.96875 322.367188 123.96875 307.792969 C 123.96875 300.585938 131.503906 292.714844 144.125 286.734375 C 149.972656 283.96875 152.476562 276.984375 149.699219 271.136719 C 146.929688 265.292969 139.929688 262.8125 134.109375 265.566406 C 112.78125 275.671875 100.546875 291.058594 100.546875 307.792969 C 100.546875 338.234375 141.167969 362.078125 193.023438 362.078125 C 244.878906 362.078125 285.5 338.234375 285.5 307.792969 C 285.5 291.058594 273.261719 275.671875 251.9375 265.566406 " fill-opacity="1" fill-rule="nonzero"/></g><g fill="#689f38" fill-opacity="1"><g transform="translate(310.621626, 285.600713)"><g><path d="M 2.09375 0.15625 C 1.632812 0.15625 1.289062 0.0195312 1.0625 -0.25 C 0.832031 -0.519531 0.71875 -0.847656 0.71875 -1.234375 C 0.71875 -1.628906 0.835938 -1.957031 1.078125 -2.21875 C 1.316406 -2.488281 1.65625 -2.625 2.09375 -2.625 C 2.53125 -2.625 2.875 -2.507812 3.125 -2.28125 C 3.382812 -2.0625 3.515625 -1.726562 3.515625 -1.28125 C 3.515625 -0.832031 3.394531 -0.476562 3.15625 -0.21875 C 2.914062 0.03125 2.5625 0.15625 2.09375 0.15625 Z M 2.09375 0.15625 "/></g></g></g></svg>