<svg xmlns="http://www.w3.org/2000/svg" xmlns:xlink="http://www.w3.org/1999/xlink" width="500" zoomAndPan="magnify" viewBox="0 0 375 374.999991" height="500" preserveAspectRatio="xMidYMid meet" version="1.0"><defs><g/><clipPath id="0f733e7635"><path d="M 204 45.234375 L 231 45.234375 L 231 110 L 204 110 Z M 204 45.234375 " clip-rule="nonzero"/></clipPath><clipPath id="c66ba64904"><path d="M 11 161 L 270 161 L 270 329.484375 L 11 329.484375 Z M 11 161 " clip-rule="nonzero"/></clipPath></defs><path fill="#ffa000" d="M 294.847656 200.28125 C 294.847656 201.546875 294.816406 202.816406 294.753906 204.082031 C 294.691406 205.351562 294.597656 206.617188 294.472656 207.878906 C 294.347656 209.140625 294.191406 210.398438 294.007812 211.65625 C 293.820312 212.910156 293.601562 214.160156 293.355469 215.402344 C 293.105469 216.648438 292.828125 217.886719 292.519531 219.117188 C 292.210938 220.347656 291.875 221.570312 291.503906 222.785156 C 291.136719 223.996094 290.738281 225.203125 290.308594 226.394531 C 289.882812 227.589844 289.425781 228.773438 288.9375 229.945312 C 288.453125 231.117188 287.9375 232.277344 287.394531 233.425781 C 286.851562 234.570312 286.28125 235.703125 285.683594 236.824219 C 285.085938 237.941406 284.457031 239.046875 283.804688 240.132812 C 283.152344 241.222656 282.472656 242.292969 281.769531 243.347656 C 281.0625 244.402344 280.332031 245.441406 279.574219 246.460938 C 278.816406 247.480469 278.039062 248.480469 277.230469 249.460938 C 276.425781 250.441406 275.597656 251.402344 274.742188 252.339844 C 273.890625 253.28125 273.015625 254.199219 272.117188 255.097656 C 271.21875 255.992188 270.300781 256.867188 269.359375 257.71875 C 268.417969 258.574219 267.457031 259.402344 266.476562 260.207031 C 265.492188 261.011719 264.492188 261.789062 263.472656 262.546875 C 262.453125 263.300781 261.414062 264.03125 260.359375 264.738281 C 259.300781 265.441406 258.230469 266.121094 257.140625 266.773438 C 256.050781 267.425781 254.945312 268.050781 253.828125 268.648438 C 252.707031 269.246094 251.574219 269.816406 250.425781 270.359375 C 249.277344 270.902344 248.117188 271.414062 246.941406 271.902344 C 245.769531 272.386719 244.585938 272.84375 243.390625 273.269531 C 242.191406 273.699219 240.988281 274.097656 239.773438 274.464844 C 238.558594 274.832031 237.332031 275.171875 236.101562 275.480469 C 234.871094 275.789062 233.632812 276.066406 232.386719 276.3125 C 231.140625 276.558594 229.890625 276.777344 228.632812 276.964844 C 227.375 277.148438 226.117188 277.304688 224.851562 277.429688 C 223.589844 277.554688 222.324219 277.648438 221.054688 277.710938 C 219.785156 277.769531 218.515625 277.800781 217.246094 277.800781 C 215.976562 277.800781 214.707031 277.769531 213.4375 277.710938 C 212.171875 277.648438 210.902344 277.554688 209.640625 277.429688 C 208.375 277.304688 207.117188 277.148438 205.859375 276.964844 C 204.605469 276.777344 203.351562 276.558594 202.109375 276.3125 C 200.863281 276.066406 199.625 275.789062 198.390625 275.480469 C 197.160156 275.171875 195.9375 274.832031 194.71875 274.464844 C 193.503906 274.097656 192.300781 273.699219 191.105469 273.269531 C 189.90625 272.84375 188.722656 272.386719 187.550781 271.902344 C 186.378906 271.414062 185.214844 270.902344 184.070312 270.359375 C 182.921875 269.816406 181.785156 269.246094 180.667969 268.648438 C 179.546875 268.050781 178.441406 267.425781 177.351562 266.773438 C 176.261719 266.121094 175.191406 265.441406 174.132812 264.738281 C 173.078125 264.03125 172.039062 263.300781 171.019531 262.546875 C 170 261.789062 169 261.011719 168.019531 260.207031 C 167.035156 259.402344 166.074219 258.574219 165.132812 257.71875 C 164.191406 256.867188 163.273438 255.992188 162.375 255.097656 C 161.476562 254.199219 160.601562 253.28125 159.75 252.339844 C 158.894531 251.402344 158.066406 250.441406 157.261719 249.460938 C 156.457031 248.480469 155.675781 247.480469 154.917969 246.460938 C 154.160156 245.441406 153.429688 244.402344 152.726562 243.347656 C 152.019531 242.292969 151.339844 241.222656 150.6875 240.132812 C 150.035156 239.046875 149.410156 237.941406 148.808594 236.824219 C 148.210938 235.703125 147.640625 234.570312 147.097656 233.425781 C 146.554688 232.277344 146.039062 231.117188 145.554688 229.945312 C 145.066406 228.773438 144.609375 227.589844 144.183594 226.394531 C 143.753906 225.203125 143.355469 223.996094 142.988281 222.785156 C 142.621094 221.570312 142.28125 220.347656 141.972656 219.117188 C 141.664062 217.886719 141.386719 216.648438 141.136719 215.402344 C 140.890625 214.160156 140.671875 212.910156 140.488281 211.65625 C 140.300781 210.398438 140.144531 209.140625 140.019531 207.878906 C 139.894531 206.617188 139.804688 205.351562 139.742188 204.082031 C 139.679688 202.816406 139.648438 201.546875 139.648438 200.28125 C 139.648438 199.011719 139.679688 197.742188 139.742188 196.476562 C 139.804688 195.207031 139.894531 193.945312 140.019531 192.679688 C 140.144531 191.417969 140.300781 190.160156 140.488281 188.90625 C 140.671875 187.648438 140.890625 186.398438 141.136719 185.15625 C 141.386719 183.910156 141.664062 182.675781 141.972656 181.441406 C 142.28125 180.210938 142.621094 178.988281 142.988281 177.777344 C 143.355469 176.5625 143.753906 175.359375 144.183594 174.164062 C 144.609375 172.96875 145.066406 171.785156 145.554688 170.613281 C 146.039062 169.441406 146.554688 168.28125 147.097656 167.132812 C 147.640625 165.988281 148.210938 164.855469 148.808594 163.734375 C 149.410156 162.617188 150.035156 161.511719 150.6875 160.425781 C 151.339844 159.335938 152.019531 158.265625 152.726562 157.210938 C 153.429688 156.15625 154.160156 155.117188 154.917969 154.097656 C 155.675781 153.082031 156.457031 152.082031 157.261719 151.101562 C 158.066406 150.121094 158.894531 149.160156 159.75 148.21875 C 160.601562 147.277344 161.476562 146.359375 162.375 145.464844 C 163.273438 144.566406 164.191406 143.691406 165.132812 142.839844 C 166.074219 141.988281 167.035156 141.160156 168.019531 140.355469 C 169 139.550781 170 138.769531 171.019531 138.011719 C 172.039062 137.257812 173.078125 136.527344 174.132812 135.820312 C 175.191406 135.117188 176.261719 134.4375 177.351562 133.785156 C 178.441406 133.132812 179.546875 132.507812 180.667969 131.910156 C 181.785156 131.3125 182.921875 130.742188 184.070312 130.199219 C 185.214844 129.65625 186.378906 129.144531 187.550781 128.65625 C 188.722656 128.171875 189.910156 127.714844 191.105469 127.289062 C 192.300781 126.863281 193.503906 126.464844 194.71875 126.09375 C 195.9375 125.726562 197.160156 125.386719 198.390625 125.082031 C 199.625 124.773438 200.863281 124.496094 202.109375 124.246094 C 203.351562 124 204.605469 123.78125 205.859375 123.597656 C 207.117188 123.410156 208.375 123.253906 209.640625 123.128906 C 210.902344 123.007812 212.171875 122.914062 213.4375 122.851562 C 214.707031 122.789062 215.976562 122.757812 217.246094 122.757812 C 218.515625 122.757812 219.785156 122.789062 221.054688 122.851562 C 222.324219 122.914062 223.589844 123.007812 224.851562 123.128906 C 226.117188 123.253906 227.375 123.410156 228.632812 123.597656 C 229.890625 123.78125 231.140625 124 232.386719 124.246094 C 233.632812 124.496094 234.871094 124.773438 236.101562 125.082031 C 237.332031 125.386719 238.558594 125.726562 239.773438 126.09375 C 240.988281 126.464844 242.191406 126.863281 243.390625 127.289062 C 244.585938 127.714844 245.769531 128.171875 246.941406 128.65625 C 248.117188 129.144531 249.277344 129.65625 250.425781 130.199219 C 251.574219 130.742188 252.707031 131.3125 253.828125 131.910156 C 254.945312 132.507812 256.050781 133.132812 257.140625 133.785156 C 258.230469 134.4375 259.300781 135.117188 260.359375 135.820312 C 261.414062 136.527344 262.453125 137.257812 263.472656 138.011719 C 264.492188 138.769531 265.492188 139.550781 266.476562 140.355469 C 267.457031 141.160156 268.417969 141.988281 269.359375 142.839844 C 270.300781 143.691406 271.21875 144.566406 272.117188 145.464844 C 273.015625 146.359375 273.890625 147.277344 274.742188 148.21875 C 275.597656 149.160156 276.425781 150.121094 277.230469 151.101562 C 278.039062 152.082031 278.816406 153.082031 279.574219 154.097656 C 280.332031 155.117188 281.0625 156.15625 281.769531 157.210938 C 282.472656 158.265625 283.152344 159.335938 283.804688 160.425781 C 284.457031 161.511719 285.085938 162.617188 285.683594 163.734375 C 286.28125 164.855469 286.851562 165.988281 287.394531 167.132812 C 287.9375 168.28125 288.453125 169.441406 288.9375 170.613281 C 289.425781 171.785156 289.882812 172.96875 290.308594 174.164062 C 290.738281 175.359375 291.136719 176.5625 291.503906 177.777344 C 291.875 178.988281 292.210938 180.210938 292.519531 181.441406 C 292.828125 182.675781 293.105469 183.910156 293.355469 185.15625 C 293.601562 186.398438 293.820312 187.648438 294.007812 188.90625 C 294.191406 190.160156 294.347656 191.417969 294.472656 192.679688 C 294.597656 193.945312 294.691406 195.207031 294.753906 196.476562 C 294.816406 197.742188 294.847656 199.011719 294.847656 200.28125 Z M 294.847656 200.28125 " fill-opacity="1" fill-rule="nonzero"/><path fill="#212121" d="M 359.511719 213.199219 L 320.710938 213.199219 C 319.863281 213.199219 319.023438 213.117188 318.1875 212.953125 C 317.355469 212.785156 316.546875 212.542969 315.761719 212.214844 C 314.976562 211.890625 314.234375 211.492188 313.527344 211.023438 C 312.820312 210.550781 312.167969 210.015625 311.566406 209.414062 C 310.964844 208.816406 310.429688 208.164062 309.957031 207.457031 C 309.488281 206.753906 309.089844 206.007812 308.761719 205.222656 C 308.4375 204.441406 308.191406 203.632812 308.027344 202.800781 C 307.863281 201.96875 307.777344 201.128906 307.777344 200.28125 C 307.777344 199.429688 307.863281 198.589844 308.027344 197.757812 C 308.191406 196.925781 308.4375 196.121094 308.761719 195.335938 C 309.089844 194.550781 309.488281 193.808594 309.957031 193.101562 C 310.429688 192.394531 310.964844 191.742188 311.566406 191.144531 C 312.167969 190.542969 312.820312 190.007812 313.527344 189.535156 C 314.234375 189.066406 314.976562 188.667969 315.761719 188.34375 C 316.546875 188.019531 317.355469 187.773438 318.1875 187.609375 C 319.023438 187.441406 319.863281 187.359375 320.710938 187.359375 L 359.511719 187.359375 C 360.359375 187.359375 361.203125 187.441406 362.035156 187.609375 C 362.867188 187.773438 363.675781 188.019531 364.460938 188.34375 C 365.246094 188.667969 365.992188 189.066406 366.699219 189.535156 C 367.402344 190.007812 368.058594 190.542969 368.65625 191.144531 C 369.257812 191.742188 369.792969 192.394531 370.265625 193.101562 C 370.738281 193.808594 371.136719 194.550781 371.460938 195.335938 C 371.785156 196.121094 372.03125 196.925781 372.195312 197.757812 C 372.363281 198.589844 372.445312 199.429688 372.445312 200.28125 C 372.445312 201.128906 372.363281 201.96875 372.195312 202.800781 C 372.03125 203.632812 371.785156 204.441406 371.460938 205.222656 C 371.136719 206.007812 370.738281 206.753906 370.265625 207.457031 C 369.792969 208.164062 369.257812 208.816406 368.65625 209.414062 C 368.058594 210.015625 367.402344 210.550781 366.699219 211.023438 C 365.992188 211.492188 365.246094 211.890625 364.460938 212.214844 C 363.675781 212.542969 362.867188 212.785156 362.035156 212.953125 C 361.203125 213.117188 360.359375 213.199219 359.511719 213.199219 Z M 359.511719 213.199219 " fill-opacity="1" fill-rule="nonzero"/><g clip-path="url(#0f733e7635)"><path fill="#212121" d="M 217.246094 109.835938 C 216.398438 109.835938 215.554688 109.753906 214.722656 109.589844 C 213.890625 109.421875 213.082031 109.179688 212.296875 108.855469 C 211.511719 108.53125 210.765625 108.132812 210.058594 107.660156 C 209.355469 107.1875 208.699219 106.652344 208.101562 106.054688 C 207.5 105.453125 206.964844 104.800781 206.492188 104.09375 C 206.019531 103.390625 205.621094 102.644531 205.296875 101.859375 C 204.972656 101.078125 204.726562 100.269531 204.5625 99.4375 C 204.394531 98.605469 204.3125 97.765625 204.3125 96.917969 L 204.3125 58.15625 C 204.3125 57.304688 204.394531 56.464844 204.5625 55.632812 C 204.726562 54.800781 204.972656 53.996094 205.296875 53.210938 C 205.621094 52.425781 206.019531 51.683594 206.492188 50.976562 C 206.964844 50.269531 207.5 49.617188 208.101562 49.019531 C 208.703125 48.417969 209.355469 47.882812 210.0625 47.410156 C 210.765625 46.941406 211.511719 46.542969 212.296875 46.21875 C 213.082031 45.894531 213.890625 45.648438 214.722656 45.484375 C 215.554688 45.316406 216.398438 45.234375 217.246094 45.234375 C 218.09375 45.234375 218.9375 45.316406 219.769531 45.484375 C 220.601562 45.648438 221.410156 45.894531 222.195312 46.21875 C 222.980469 46.542969 223.726562 46.941406 224.433594 47.410156 C 225.136719 47.882812 225.792969 48.417969 226.390625 49.019531 C 226.992188 49.617188 227.527344 50.269531 228 50.976562 C 228.472656 51.683594 228.871094 52.425781 229.195312 53.210938 C 229.519531 53.996094 229.765625 54.800781 229.929688 55.632812 C 230.097656 56.464844 230.179688 57.304688 230.179688 58.15625 L 230.179688 96.917969 C 230.179688 97.765625 230.097656 98.605469 229.933594 99.4375 C 229.765625 100.269531 229.519531 101.078125 229.195312 101.859375 C 228.871094 102.644531 228.472656 103.390625 228 104.09375 C 227.527344 104.800781 226.992188 105.453125 226.394531 106.054688 C 225.792969 106.652344 225.140625 107.1875 224.433594 107.660156 C 223.726562 108.132812 222.980469 108.53125 222.195312 108.855469 C 221.410156 109.179688 220.601562 109.421875 219.769531 109.589844 C 218.9375 109.753906 218.09375 109.835938 217.246094 109.835938 Z M 217.246094 109.835938 " fill-opacity="1" fill-rule="nonzero"/></g><path fill="#212121" d="M 297.523438 138.351562 L 326.988281 108.914062 C 327.589844 108.316406 328.125 107.664062 328.597656 106.957031 C 329.070312 106.253906 329.46875 105.507812 329.792969 104.722656 C 330.117188 103.941406 330.363281 103.132812 330.527344 102.300781 C 330.695312 101.46875 330.777344 100.628906 330.777344 99.78125 C 330.777344 98.933594 330.695312 98.089844 330.527344 97.257812 C 330.363281 96.425781 330.117188 95.621094 329.792969 94.835938 C 329.46875 94.050781 329.070312 93.308594 328.597656 92.601562 C 328.125 91.898438 327.589844 91.246094 326.988281 90.644531 C 326.390625 90.046875 325.734375 89.507812 325.03125 89.039062 C 324.324219 88.566406 323.578125 88.167969 322.792969 87.84375 C 322.007812 87.519531 321.199219 87.273438 320.367188 87.109375 C 319.535156 86.945312 318.695312 86.859375 317.84375 86.859375 C 316.996094 86.859375 316.15625 86.945312 315.320312 87.109375 C 314.488281 87.273438 313.679688 87.519531 312.894531 87.84375 C 312.113281 88.167969 311.367188 88.566406 310.660156 89.039062 C 309.953125 89.507812 309.300781 90.046875 308.699219 90.644531 L 279.234375 120.082031 C 278.644531 120.683594 278.117188 121.335938 277.652344 122.042969 C 277.191406 122.746094 276.800781 123.492188 276.480469 124.273438 C 276.164062 125.054688 275.925781 125.859375 275.765625 126.6875 C 275.605469 127.515625 275.527344 128.351562 275.53125 129.191406 C 275.535156 130.035156 275.621094 130.871094 275.789062 131.699219 C 275.953125 132.523438 276.199219 133.328125 276.527344 134.105469 C 276.851562 134.882812 277.25 135.625 277.71875 136.324219 C 278.1875 137.023438 278.722656 137.671875 279.316406 138.269531 C 279.914062 138.867188 280.5625 139.398438 281.265625 139.867188 C 281.964844 140.335938 282.707031 140.734375 283.484375 141.058594 C 284.265625 141.382812 285.070312 141.628906 285.894531 141.796875 C 286.722656 141.964844 287.558594 142.050781 288.402344 142.054688 C 289.246094 142.058594 290.085938 141.980469 290.914062 141.820312 C 291.742188 141.660156 292.546875 141.421875 293.328125 141.101562 C 294.113281 140.785156 294.855469 140.394531 295.5625 139.933594 C 296.265625 139.46875 296.921875 138.941406 297.523438 138.351562 Z M 297.523438 138.351562 " fill-opacity="1" fill-rule="nonzero"/><path fill="#212121" d="M 125.792969 90.644531 C 125.191406 90.046875 124.539062 89.511719 123.832031 89.039062 C 123.125 88.566406 122.382812 88.167969 121.597656 87.84375 C 120.8125 87.519531 120.003906 87.273438 119.171875 87.109375 C 118.335938 86.945312 117.496094 86.863281 116.648438 86.863281 C 115.796875 86.863281 114.957031 86.945312 114.125 87.109375 C 113.292969 87.273438 112.484375 87.519531 111.699219 87.84375 C 110.914062 88.167969 110.167969 88.566406 109.464844 89.039062 C 108.757812 89.511719 108.105469 90.046875 107.503906 90.644531 C 106.902344 91.246094 106.367188 91.898438 105.894531 92.601562 C 105.421875 93.308594 105.023438 94.054688 104.699219 94.835938 C 104.375 95.621094 104.128906 96.429688 103.964844 97.261719 C 103.796875 98.09375 103.714844 98.933594 103.714844 99.78125 C 103.714844 100.628906 103.796875 101.46875 103.964844 102.300781 C 104.128906 103.132812 104.375 103.941406 104.699219 104.722656 C 105.023438 105.507812 105.421875 106.253906 105.894531 106.957031 C 106.367188 107.664062 106.902344 108.316406 107.503906 108.914062 L 136.96875 138.351562 C 137.570312 138.941406 138.226562 139.46875 138.933594 139.933594 C 139.636719 140.394531 140.382812 140.785156 141.164062 141.101562 C 141.945312 141.421875 142.75 141.660156 143.578125 141.820312 C 144.410156 141.980469 145.246094 142.058594 146.089844 142.054688 C 146.933594 142.050781 147.769531 141.964844 148.597656 141.796875 C 149.425781 141.628906 150.226562 141.382812 151.007812 141.058594 C 151.785156 140.734375 152.527344 140.335938 153.226562 139.867188 C 153.929688 139.398438 154.578125 138.867188 155.175781 138.269531 C 155.769531 137.671875 156.304688 137.023438 156.773438 136.324219 C 157.246094 135.625 157.640625 134.882812 157.964844 134.105469 C 158.292969 133.328125 158.539062 132.523438 158.703125 131.699219 C 158.871094 130.871094 158.957031 130.035156 158.960938 129.191406 C 158.964844 128.351562 158.886719 127.515625 158.726562 126.6875 C 158.566406 125.859375 158.328125 125.054688 158.011719 124.273438 C 157.695312 123.492188 157.304688 122.746094 156.839844 122.042969 C 156.375 121.335938 155.847656 120.683594 155.257812 120.082031 Z M 125.792969 90.644531 " fill-opacity="1" fill-rule="nonzero"/><path fill="#212121" d="M 303.988281 268.667969 C 303.386719 268.078125 302.734375 267.550781 302.027344 267.085938 C 301.320312 266.625 300.578125 266.234375 299.796875 265.914062 C 299.015625 265.597656 298.207031 265.359375 297.378906 265.199219 C 296.550781 265.039062 295.714844 264.960938 294.871094 264.964844 C 294.027344 264.96875 293.191406 265.054688 292.363281 265.222656 C 291.535156 265.390625 290.730469 265.636719 289.953125 265.960938 C 289.171875 266.285156 288.433594 266.679688 287.730469 267.152344 C 287.03125 267.621094 286.378906 268.152344 285.785156 268.75 C 285.1875 269.34375 284.652344 269.992188 284.183594 270.695312 C 283.714844 271.394531 283.316406 272.136719 282.992188 272.914062 C 282.667969 273.691406 282.421875 274.496094 282.253906 275.320312 C 282.085938 276.148438 282 276.984375 281.996094 277.828125 C 281.992188 278.667969 282.070312 279.503906 282.230469 280.332031 C 282.390625 281.160156 282.628906 281.964844 282.949219 282.746094 C 283.265625 283.53125 283.65625 284.273438 284.121094 284.976562 C 284.582031 285.683594 285.109375 286.335938 285.703125 286.9375 L 308.703125 309.914062 C 309.300781 310.511719 309.957031 311.046875 310.660156 311.519531 C 311.367188 311.988281 312.113281 312.386719 312.898438 312.710938 C 313.679688 313.035156 314.488281 313.277344 315.320312 313.445312 C 316.15625 313.609375 316.996094 313.691406 317.84375 313.691406 C 318.691406 313.691406 319.53125 313.609375 320.363281 313.441406 C 321.199219 313.277344 322.003906 313.03125 322.789062 312.707031 C 323.574219 312.382812 324.320312 311.984375 325.023438 311.511719 C 325.730469 311.042969 326.382812 310.507812 326.984375 309.90625 C 327.582031 309.308594 328.117188 308.65625 328.589844 307.949219 C 329.0625 307.246094 329.460938 306.5 329.785156 305.71875 C 330.109375 304.933594 330.355469 304.128906 330.519531 303.296875 C 330.6875 302.464844 330.769531 301.625 330.769531 300.777344 C 330.769531 299.929688 330.6875 299.089844 330.523438 298.257812 C 330.359375 297.425781 330.113281 296.617188 329.789062 295.835938 C 329.464844 295.050781 329.066406 294.308594 328.597656 293.601562 C 328.125 292.894531 327.589844 292.242188 326.988281 291.644531 Z M 303.988281 268.667969 " fill-opacity="1" fill-rule="nonzero"/><g clip-path="url(#c66ba64904)"><path fill="#1976d2" d="M 241.066406 233.925781 C 237.679688 232.15625 234.125 230.839844 230.402344 229.96875 C 226.683594 229.101562 222.910156 228.710938 219.089844 228.796875 C 218.992188 223.261719 218.101562 217.855469 216.425781 212.582031 C 214.75 207.304688 212.355469 202.378906 209.238281 197.800781 C 207.257812 195.050781 205.128906 192.425781 202.84375 189.925781 C 200.558594 187.425781 198.132812 185.0625 195.574219 182.84375 C 193.011719 180.625 190.332031 178.5625 187.53125 176.65625 C 184.730469 174.75 181.828125 173.011719 178.824219 171.441406 C 175.820312 169.871094 172.738281 168.480469 169.570312 167.269531 C 166.40625 166.058594 163.179688 165.039062 159.894531 164.203125 C 156.609375 163.367188 153.289062 162.722656 149.929688 162.277344 C 146.570312 161.828125 143.195312 161.574219 139.804688 161.519531 C 136.792969 161.496094 133.792969 161.65625 130.800781 161.996094 C 127.808594 162.335938 124.847656 162.851562 121.917969 163.546875 C 118.988281 164.242188 116.113281 165.109375 113.285156 166.152344 C 110.460938 167.191406 107.710938 168.398438 105.03125 169.769531 C 102.347656 171.140625 99.761719 172.664062 97.265625 174.347656 C 94.769531 176.03125 92.382812 177.855469 90.105469 179.824219 C 87.828125 181.792969 85.679688 183.890625 83.65625 186.117188 C 81.632812 188.34375 79.75 190.683594 78.003906 193.136719 C 76.265625 195.753906 74.75 198.492188 73.460938 201.355469 C 72.167969 204.21875 71.117188 207.167969 70.308594 210.199219 C 69.5 213.234375 68.941406 216.316406 68.636719 219.441406 C 68.332031 222.566406 68.28125 225.695312 68.488281 228.828125 C 66.984375 228.808594 65.476562 228.851562 63.976562 228.953125 C 62.472656 229.054688 60.976562 229.21875 59.484375 229.4375 C 57.996094 229.65625 56.515625 229.933594 55.046875 230.269531 C 53.582031 230.605469 52.128906 231 50.691406 231.449219 C 49.253906 231.898438 47.835938 232.40625 46.4375 232.964844 C 45.042969 233.527344 43.667969 234.144531 42.320312 234.8125 C 40.96875 235.484375 39.648438 236.203125 38.359375 236.976562 C 37.066406 237.75 35.808594 238.574219 34.578125 239.445312 C 33.351562 240.320312 32.160156 241.238281 31.007812 242.207031 C 29.851562 243.171875 28.738281 244.183594 27.664062 245.234375 C 26.589844 246.289062 25.554688 247.386719 24.566406 248.519531 C 23.578125 249.65625 22.636719 250.828125 21.738281 252.035156 C 20.84375 253.246094 19.996094 254.488281 19.199219 255.765625 C 18.398438 257.039062 17.652344 258.347656 16.957031 259.679688 C 16.261719 261.015625 15.621094 262.375 15.03125 263.761719 C 14.445312 265.144531 13.910156 266.550781 13.433594 267.980469 C 2.890625 298.558594 30.976562 329.890625 61.480469 329.484375 L 218.9375 329.484375 C 220.546875 329.515625 222.148438 329.464844 223.75 329.335938 C 225.351562 329.210938 226.945312 329.003906 228.523438 328.71875 C 230.105469 328.4375 231.671875 328.074219 233.214844 327.640625 C 234.761719 327.203125 236.285156 326.691406 237.78125 326.105469 C 239.273438 325.519531 240.738281 324.863281 242.171875 324.132812 C 243.601562 323.402344 244.992188 322.605469 246.347656 321.738281 C 247.699219 320.875 249.007812 319.945312 250.269531 318.949219 C 251.53125 317.957031 252.742188 316.902344 253.898438 315.792969 C 255.058594 314.679688 256.160156 313.511719 257.203125 312.292969 C 258.246094 311.074219 259.226562 309.804688 260.148438 308.488281 C 261.066406 307.171875 261.917969 305.8125 262.707031 304.414062 C 263.492188 303.015625 264.207031 301.578125 264.851562 300.109375 C 265.496094 298.640625 266.070312 297.140625 266.566406 295.617188 C 267.066406 294.089844 267.488281 292.542969 267.835938 290.976562 C 268.179688 289.410156 268.449219 287.828125 268.640625 286.234375 C 268.832031 284.640625 268.945312 283.042969 268.980469 281.4375 C 269.050781 279.011719 268.953125 276.597656 268.6875 274.1875 C 268.421875 271.777344 267.988281 269.398438 267.386719 267.050781 C 266.785156 264.703125 266.023438 262.40625 265.097656 260.164062 C 264.175781 257.921875 263.097656 255.757812 261.871094 253.667969 C 260.640625 251.574219 259.273438 249.582031 257.765625 247.683594 C 256.253906 245.78125 254.621094 244 252.863281 242.328125 C 251.101562 240.660156 249.234375 239.121094 247.261719 237.714844 C 245.285156 236.304688 243.21875 235.042969 241.066406 233.925781 Z M 241.066406 233.925781 " fill-opacity="1" fill-rule="nonzero"/></g><g fill="#212121" fill-opacity="1"><g transform="translate(291.689579, 280.587932)"><g><path d="M 2.09375 0.15625 C 1.632812 0.15625 1.289062 0.0195312 1.0625 -0.25 C 0.832031 -0.519531 0.71875 -0.847656 0.71875 -1.234375 C 0.71875 -1.628906 0.835938 -1.957031 1.078125 -2.21875 C 1.316406 -2.488281 1.65625 -2.625 2.09375 -2.625 C 2.53125 -2.625 2.875 -2.507812 3.125 -2.28125 C 3.382812 -2.0625 3.515625 -1.726562 3.515625 -1.28125 C 3.515625 -0.832031 3.394531 -0.476562 3.15625 -0.21875 C 2.914062 0.03125 2.5625 0.15625 2.09375 0.15625 Z M 2.09375 0.15625 "/></g></g></g></svg>