<svg xmlns="http://www.w3.org/2000/svg" xmlns:xlink="http://www.w3.org/1999/xlink" width="500" zoomAndPan="magnify" viewBox="0 0 375 374.999991" height="500" preserveAspectRatio="xMidYMid meet" version="1.0"><defs><g/></defs><path fill="#1976d2" d="M 334.050781 210.445312 L 323.511719 176.195312 C 322.921875 174.261719 322.1875 172.390625 321.296875 170.574219 C 320.410156 168.761719 319.382812 167.03125 318.21875 165.378906 C 317.054688 163.730469 315.765625 162.183594 314.351562 160.742188 C 312.9375 159.296875 311.417969 157.976562 309.792969 156.777344 C 308.167969 155.578125 306.457031 154.515625 304.660156 153.589844 C 302.867188 152.664062 301.007812 151.886719 299.085938 151.257812 C 297.167969 150.628906 295.207031 150.160156 293.214844 149.84375 C 291.21875 149.53125 289.210938 149.378906 287.1875 149.386719 L 79.042969 149.386719 C 77.023438 149.378906 75.015625 149.53125 73.019531 149.84375 C 71.023438 150.160156 69.066406 150.632812 67.144531 151.257812 C 65.222656 151.886719 63.367188 152.664062 61.570312 153.589844 C 59.773438 154.515625 58.0625 155.578125 56.4375 156.777344 C 54.8125 157.980469 53.292969 159.300781 51.878906 160.746094 C 50.464844 162.1875 49.175781 163.734375 48.007812 165.382812 C 46.84375 167.035156 45.816406 168.765625 44.929688 170.582031 C 44.042969 172.394531 43.304688 174.269531 42.714844 176.203125 L 37.144531 194.324219 C 36.933594 195 36.785156 195.691406 36.695312 196.390625 C 36.601562 197.09375 36.566406 197.796875 36.59375 198.503906 C 36.621094 199.210938 36.703125 199.910156 36.847656 200.601562 C 36.988281 201.296875 37.191406 201.972656 37.445312 202.632812 C 37.703125 203.289062 38.011719 203.921875 38.375 204.53125 C 38.738281 205.136719 39.148438 205.710938 39.605469 206.25 C 40.0625 206.789062 40.566406 207.285156 41.105469 207.742188 C 41.648438 208.195312 42.222656 208.601562 42.832031 208.960938 L 228.585938 318.191406 C 229.203125 318.550781 229.84375 318.859375 230.515625 319.113281 C 231.183594 319.367188 231.867188 319.566406 232.570312 319.703125 C 233.269531 319.839844 233.980469 319.917969 234.695312 319.9375 C 235.410156 319.953125 236.121094 319.910156 236.828125 319.808594 C 237.535156 319.707031 238.230469 319.542969 238.910156 319.324219 C 239.589844 319.105469 240.246094 318.828125 240.878906 318.496094 C 241.511719 318.164062 242.113281 317.78125 242.683594 317.347656 C 243.25 316.914062 243.78125 316.4375 244.265625 315.914062 L 331.199219 222.804688 C 331.960938 221.992188 332.601562 221.09375 333.125 220.109375 C 333.648438 219.125 334.035156 218.09375 334.285156 217.007812 C 334.535156 215.921875 334.640625 214.824219 334.601562 213.710938 C 334.5625 212.597656 334.378906 211.511719 334.050781 210.445312 Z M 334.050781 210.445312 " fill-opacity="1" fill-rule="nonzero"/><path fill="#689f38" d="M 105.375 216.363281 L 55.679688 187.132812 C 55.269531 186.894531 54.847656 186.675781 54.410156 186.480469 C 53.976562 186.289062 53.53125 186.117188 53.078125 185.976562 C 52.621094 185.832031 52.160156 185.714844 51.695312 185.621094 C 51.226562 185.53125 50.753906 185.464844 50.277344 185.425781 C 49.804688 185.386719 49.328125 185.375 48.851562 185.390625 C 48.375 185.40625 47.902344 185.449219 47.429688 185.519531 C 46.957031 185.585938 46.492188 185.679688 46.03125 185.804688 C 45.570312 185.925781 45.117188 186.070312 44.671875 186.242188 C 44.226562 186.414062 43.796875 186.613281 43.375 186.835938 C 42.949219 187.054688 42.542969 187.300781 42.148438 187.566406 C 41.753906 187.835938 41.375 188.125 41.011719 188.433594 C 40.652344 188.742188 40.308594 189.074219 39.984375 189.421875 C 39.660156 189.769531 39.355469 190.136719 39.070312 190.519531 C 38.789062 190.902344 38.527344 191.300781 38.289062 191.714844 C 38.050781 192.125 37.835938 192.550781 37.644531 192.988281 C 37.453125 193.425781 37.289062 193.871094 37.148438 194.324219 L 12.042969 275.894531 C 11.847656 276.523438 11.707031 277.160156 11.613281 277.808594 C 11.519531 278.457031 11.476562 279.109375 11.480469 279.765625 C 11.488281 280.421875 11.546875 281.070312 11.65625 281.71875 C 11.765625 282.363281 11.921875 283 12.128906 283.621094 C 12.335938 284.242188 12.589844 284.84375 12.890625 285.425781 C 13.191406 286.007812 13.535156 286.566406 13.921875 287.09375 C 14.308594 287.625 14.734375 288.121094 15.199219 288.582031 C 15.664062 289.046875 16.160156 289.46875 16.691406 289.855469 C 17.222656 290.242188 17.777344 290.585938 18.359375 290.882812 C 18.945312 291.183594 19.546875 291.4375 20.167969 291.640625 C 20.792969 291.847656 21.425781 292.003906 22.074219 292.113281 C 22.722656 292.21875 23.371094 292.277344 24.027344 292.28125 C 24.683594 292.289062 25.335938 292.242188 25.984375 292.148438 C 26.632812 292.054688 27.269531 291.910156 27.898438 291.714844 C 28.523438 291.519531 29.132812 291.277344 29.71875 290.992188 C 30.308594 290.703125 30.871094 290.371094 31.410156 289.996094 L 106.210938 237.652344 C 106.644531 237.347656 107.054688 237.019531 107.449219 236.667969 C 107.839844 236.3125 108.207031 235.933594 108.550781 235.535156 C 108.894531 235.132812 109.214844 234.714844 109.507812 234.273438 C 109.796875 233.832031 110.0625 233.375 110.296875 232.902344 C 110.53125 232.429688 110.734375 231.945312 110.910156 231.445312 C 111.082031 230.949219 111.222656 230.441406 111.335938 229.921875 C 111.445312 229.40625 111.523438 228.886719 111.570312 228.359375 C 111.613281 227.832031 111.625 227.308594 111.605469 226.78125 C 111.585938 226.25 111.53125 225.726562 111.445312 225.207031 C 111.359375 224.6875 111.238281 224.171875 111.089844 223.667969 C 110.9375 223.160156 110.757812 222.664062 110.546875 222.183594 C 110.332031 221.699219 110.089844 221.230469 109.820312 220.777344 C 109.550781 220.324219 109.25 219.890625 108.925781 219.472656 C 108.601562 219.058594 108.25 218.664062 107.875 218.289062 C 107.5 217.917969 107.105469 217.570312 106.6875 217.25 C 106.269531 216.925781 105.832031 216.628906 105.375 216.363281 Z M 105.375 216.363281 " fill-opacity="1" fill-rule="nonzero"/><path fill="#689f38" d="M 362.484375 302.835938 L 334.042969 210.445312 C 333.882812 209.917969 333.6875 209.402344 333.457031 208.898438 C 333.226562 208.394531 332.964844 207.910156 332.671875 207.441406 C 332.378906 206.972656 332.054688 206.527344 331.703125 206.101562 C 331.351562 205.671875 330.972656 205.273438 330.566406 204.894531 C 330.164062 204.519531 329.734375 204.171875 329.285156 203.851562 C 328.835938 203.53125 328.363281 203.238281 327.875 202.980469 C 327.386719 202.722656 326.882812 202.496094 326.367188 202.300781 C 325.847656 202.109375 325.320312 201.949219 324.78125 201.824219 C 324.242188 201.703125 323.699219 201.613281 323.148438 201.5625 C 322.597656 201.507812 322.046875 201.492188 321.492188 201.511719 C 320.941406 201.53125 320.390625 201.585938 319.84375 201.679688 C 319.300781 201.769531 318.761719 201.894531 318.234375 202.058594 C 317.707031 202.21875 317.191406 202.414062 316.6875 202.644531 C 316.183594 202.875 315.699219 203.136719 315.230469 203.429688 C 314.761719 203.722656 314.3125 204.042969 313.886719 204.394531 C 313.457031 204.746094 313.058594 205.125 312.679688 205.53125 L 195.816406 330.699219 C 194.972656 331.601562 194.277344 332.605469 193.730469 333.707031 C 193.183594 334.8125 192.804688 335.972656 192.59375 337.191406 C 192.386719 338.40625 192.355469 339.625 192.5 340.851562 C 192.648438 342.074219 192.96875 343.253906 193.460938 344.382812 C 193.953125 345.515625 194.59375 346.550781 195.390625 347.496094 C 196.183594 348.4375 197.097656 349.25 198.128906 349.925781 C 199.164062 350.601562 200.269531 351.117188 201.453125 351.46875 C 202.632812 351.824219 203.839844 352 205.074219 352 L 326.164062 352 C 326.90625 352 327.644531 351.980469 328.382812 351.933594 C 329.121094 351.890625 329.859375 351.828125 330.59375 351.742188 C 331.328125 351.65625 332.0625 351.546875 332.789062 351.417969 C 333.519531 351.289062 334.242188 351.140625 334.964844 350.96875 C 335.683594 350.796875 336.398438 350.605469 337.109375 350.390625 C 337.816406 350.179688 338.519531 349.945312 339.214844 349.691406 C 339.910156 349.4375 340.597656 349.164062 341.277344 348.867188 C 341.953125 348.574219 342.625 348.261719 343.285156 347.925781 C 343.945312 347.59375 344.597656 347.242188 345.238281 346.871094 C 345.878906 346.5 346.507812 346.109375 347.125 345.699219 C 347.742188 345.292969 348.347656 344.867188 348.9375 344.421875 C 349.53125 343.980469 350.109375 343.519531 350.675781 343.042969 C 351.242188 342.566406 351.792969 342.070312 352.328125 341.5625 C 352.867188 341.054688 353.386719 340.527344 353.894531 339.988281 C 354.402344 339.449219 354.890625 338.894531 355.363281 338.324219 C 355.839844 337.757812 356.296875 337.175781 356.734375 336.578125 C 357.175781 335.984375 357.597656 335.375 358 334.757812 C 358.40625 334.136719 358.789062 333.507812 359.15625 332.863281 C 359.527344 332.222656 359.875 331.570312 360.203125 330.90625 C 360.53125 330.242188 360.839844 329.570312 361.132812 328.890625 C 361.421875 328.210938 361.691406 327.519531 361.941406 326.824219 C 362.191406 326.128906 362.417969 325.425781 362.628906 324.714844 C 362.835938 324.003906 363.023438 323.289062 363.191406 322.566406 C 363.359375 321.847656 363.503906 321.121094 363.628906 320.390625 C 363.753906 319.664062 363.855469 318.929688 363.9375 318.195312 C 364.019531 317.460938 364.078125 316.722656 364.117188 315.984375 C 364.15625 315.246094 364.171875 314.503906 364.167969 313.765625 C 364.164062 313.023438 364.136719 312.285156 364.085938 311.546875 C 364.039062 310.808594 363.96875 310.074219 363.878906 309.339844 C 363.789062 308.605469 363.675781 307.875 363.542969 307.144531 C 363.40625 306.417969 363.253906 305.695312 363.078125 304.976562 C 362.902344 304.257812 362.703125 303.542969 362.484375 302.835938 Z M 362.484375 302.835938 " fill-opacity="1" fill-rule="nonzero"/><path fill="#1976d2" d="M 241.429688 296.363281 L 105.371094 216.363281 C 104.324219 215.746094 103.210938 215.292969 102.035156 214.996094 C 100.859375 214.699219 99.664062 214.574219 98.449219 214.625 C 97.238281 214.671875 96.054688 214.886719 94.90625 215.277344 C 93.753906 215.664062 92.683594 216.203125 91.6875 216.902344 L 16.886719 269.242188 C 15.730469 270.050781 14.738281 271.023438 13.90625 272.164062 C 13.078125 273.304688 12.457031 274.546875 12.042969 275.894531 L 3.746094 302.832031 C 3.527344 303.539062 3.332031 304.25 3.15625 304.96875 C 2.980469 305.6875 2.824219 306.410156 2.691406 307.140625 C 2.558594 307.867188 2.445312 308.597656 2.351562 309.332031 C 2.261719 310.066406 2.191406 310.804688 2.144531 311.542969 C 2.097656 312.28125 2.070312 313.019531 2.066406 313.761719 C 2.058594 314.5 2.078125 315.238281 2.117188 315.980469 C 2.152344 316.71875 2.214844 317.457031 2.296875 318.191406 C 2.375 318.925781 2.480469 319.660156 2.605469 320.386719 C 2.726562 321.117188 2.875 321.84375 3.039062 322.5625 C 3.207031 323.285156 3.394531 324 3.601562 324.710938 C 3.8125 325.421875 4.039062 326.125 4.289062 326.820312 C 4.539062 327.515625 4.808594 328.207031 5.101562 328.886719 C 5.390625 329.566406 5.699219 330.238281 6.027344 330.902344 C 6.359375 331.566406 6.707031 332.21875 7.074219 332.859375 C 7.441406 333.503906 7.828125 334.132812 8.230469 334.753906 C 8.632812 335.375 9.058594 335.980469 9.496094 336.578125 C 9.9375 337.171875 10.394531 337.753906 10.867188 338.324219 C 11.339844 338.890625 11.832031 339.445312 12.335938 339.984375 C 12.84375 340.527344 13.363281 341.050781 13.902344 341.558594 C 14.4375 342.070312 14.988281 342.5625 15.554688 343.039062 C 16.121094 343.519531 16.699219 343.980469 17.292969 344.421875 C 17.886719 344.867188 18.488281 345.292969 19.109375 345.699219 C 19.726562 346.109375 20.355469 346.496094 20.996094 346.867188 C 21.636719 347.242188 22.285156 347.59375 22.945312 347.925781 C 23.605469 348.257812 24.277344 348.574219 24.957031 348.867188 C 25.636719 349.160156 26.324219 349.4375 27.019531 349.691406 C 27.714844 349.945312 28.414062 350.179688 29.125 350.390625 C 29.832031 350.605469 30.546875 350.796875 31.269531 350.96875 C 31.988281 351.140625 32.714844 351.289062 33.441406 351.417969 C 34.171875 351.546875 34.902344 351.65625 35.636719 351.742188 C 36.375 351.828125 37.109375 351.890625 37.851562 351.933594 C 38.589844 351.980469 39.328125 352 40.070312 352 L 205.074219 352 C 206.832031 352 208.515625 351.648438 210.125 350.949219 C 211.734375 350.25 213.136719 349.257812 214.335938 347.976562 L 244.269531 315.914062 C 244.589844 315.570312 244.894531 315.207031 245.175781 314.828125 C 245.457031 314.449219 245.71875 314.054688 245.957031 313.644531 C 246.195312 313.238281 246.410156 312.816406 246.597656 312.382812 C 246.789062 311.953125 246.957031 311.511719 247.097656 311.058594 C 247.238281 310.609375 247.355469 310.148438 247.445312 309.6875 C 247.535156 309.222656 247.597656 308.753906 247.636719 308.28125 C 247.675781 307.8125 247.6875 307.339844 247.671875 306.867188 C 247.65625 306.394531 247.613281 305.925781 247.546875 305.457031 C 247.476562 304.988281 247.382812 304.527344 247.265625 304.070312 C 247.144531 303.613281 247 303.164062 246.828125 302.722656 C 246.660156 302.28125 246.464844 301.851562 246.246094 301.429688 C 246.027344 301.011719 245.785156 300.605469 245.523438 300.214844 C 245.257812 299.820312 244.972656 299.445312 244.667969 299.085938 C 244.363281 298.722656 244.035156 298.382812 243.691406 298.058594 C 243.347656 297.734375 242.988281 297.429688 242.609375 297.148438 C 242.230469 296.863281 241.835938 296.601562 241.429688 296.363281 Z M 241.429688 296.363281 " fill-opacity="1" fill-rule="nonzero"/><path fill="#ffb300" d="M 336.148438 217.386719 L 210.480469 352 L 175.894531 352 L 214.914062 310.210938 L 99.507812 242.335938 L 2.089844 310.464844 C 2.335938 307.867188 2.882812 305.332031 3.738281 302.867188 L 13.363281 271.714844 L 75.566406 228.152344 L 34.265625 203.835938 L 41.867188 179.015625 L 232.648438 291.214844 L 325.886719 191.425781 C 326.386719 190.816406 326.976562 190.308594 327.660156 189.90625 Z M 336.148438 217.386719 " fill-opacity="1" fill-rule="nonzero"/><path fill="#f44336" d="M 244.953125 49.214844 C 242.84375 47.140625 240.632812 45.179688 238.324219 43.332031 C 236.015625 41.480469 233.617188 39.753906 231.136719 38.148438 C 228.652344 36.539062 226.089844 35.0625 223.457031 33.714844 C 220.824219 32.367188 218.128906 31.15625 215.371094 30.082031 C 212.617188 29.007812 209.8125 28.074219 206.960938 27.28125 C 204.109375 26.492188 201.226562 25.847656 198.308594 25.347656 C 195.390625 24.851562 192.457031 24.5 189.507812 24.296875 C 186.554688 24.097656 183.601562 24.042969 180.640625 24.140625 C 179.234375 24.191406 177.824219 24.277344 176.421875 24.394531 C 175.015625 24.511719 173.613281 24.664062 172.214844 24.847656 C 170.816406 25.03125 169.421875 25.25 168.035156 25.5 C 166.648438 25.75 165.265625 26.03125 163.890625 26.347656 C 162.515625 26.664062 161.152344 27.011719 159.792969 27.390625 C 158.433594 27.769531 157.085938 28.183594 155.746094 28.628906 C 154.410156 29.070312 153.082031 29.546875 151.765625 30.050781 C 150.449219 30.558594 149.144531 31.097656 147.855469 31.664062 C 146.5625 32.230469 145.289062 32.832031 144.023438 33.457031 C 142.761719 34.085938 141.515625 34.746094 140.285156 35.433594 C 139.050781 36.121094 137.839844 36.835938 136.640625 37.582031 C 135.441406 38.324219 134.265625 39.097656 133.101562 39.898438 C 131.941406 40.699219 130.800781 41.527344 129.679688 42.382812 C 128.558594 43.234375 127.457031 44.117188 126.375 45.023438 C 125.296875 45.929688 124.238281 46.859375 123.203125 47.816406 C 122.164062 48.773438 121.152344 49.753906 120.164062 50.757812 C 119.171875 51.761719 118.207031 52.789062 117.265625 53.839844 C 116.324219 54.890625 115.410156 55.960938 114.519531 57.054688 C 113.628906 58.148438 112.765625 59.261719 111.925781 60.394531 C 111.089844 61.53125 110.277344 62.683594 109.496094 63.855469 C 108.710938 65.027344 107.957031 66.21875 107.230469 67.425781 C 106.503906 68.636719 105.804688 69.859375 105.136719 71.101562 C 104.46875 72.34375 103.828125 73.597656 103.21875 74.871094 C 102.609375 76.140625 102.03125 77.425781 101.480469 78.726562 C 100.933594 80.023438 100.414062 81.335938 99.929688 82.65625 C 99.441406 83.980469 98.988281 85.316406 98.5625 86.660156 C 98.140625 88.003906 97.75 89.359375 97.390625 90.722656 C 97.027344 92.085938 96.703125 93.457031 96.40625 94.835938 C 96.113281 96.214844 95.851562 97.597656 95.621094 98.988281 C 95.390625 100.378906 95.195312 101.777344 95.03125 103.175781 C 94.871094 104.578125 94.738281 105.980469 94.644531 107.386719 C 94.546875 108.792969 94.484375 110.203125 94.453125 111.609375 C 94.371094 116.417969 94.6875 121.195312 95.398438 125.949219 C 96.109375 130.703125 97.203125 135.367188 98.6875 139.9375 C 100.171875 144.511719 102.019531 148.929688 104.234375 153.195312 C 106.449219 157.464844 108.996094 161.519531 111.882812 165.363281 C 113.480469 167.757812 153.414062 223.261719 166.175781 240.941406 C 166.640625 241.585938 167.140625 242.199219 167.679688 242.785156 C 168.21875 243.371094 168.789062 243.925781 169.390625 244.441406 C 169.992188 244.960938 170.625 245.441406 171.285156 245.886719 C 171.945312 246.328125 172.628906 246.734375 173.335938 247.097656 C 174.042969 247.460938 174.769531 247.78125 175.511719 248.058594 C 176.257812 248.335938 177.015625 248.570312 177.789062 248.761719 C 178.5625 248.949219 179.34375 249.089844 180.132812 249.1875 C 180.921875 249.285156 181.714844 249.335938 182.507812 249.339844 C 183.304688 249.339844 184.097656 249.296875 184.886719 249.207031 C 185.675781 249.117188 186.460938 248.984375 187.234375 248.800781 C 188.007812 248.617188 188.769531 248.390625 189.515625 248.121094 C 190.261719 247.847656 190.992188 247.535156 191.703125 247.175781 C 192.414062 246.820312 193.097656 246.421875 193.761719 245.984375 C 194.425781 245.546875 195.0625 245.070312 195.667969 244.554688 C 196.277344 244.042969 196.851562 243.496094 197.394531 242.914062 C 197.9375 242.335938 198.445312 241.722656 198.914062 241.082031 C 199.402344 240.441406 252.089844 168.425781 254.140625 165.8125 C 256.96875 162 259.480469 157.984375 261.675781 153.773438 C 263.867188 149.558594 265.710938 145.199219 267.210938 140.691406 C 268.710938 136.1875 269.84375 131.589844 270.613281 126.902344 C 271.382812 122.214844 271.773438 117.496094 271.792969 112.75 C 271.804688 109.792969 271.664062 106.84375 271.375 103.902344 C 271.089844 100.960938 270.65625 98.042969 270.074219 95.144531 C 269.492188 92.246094 268.765625 89.386719 267.894531 86.5625 C 267.023438 83.738281 266.011719 80.964844 264.863281 78.242188 C 263.714844 75.519531 262.429688 72.863281 261.011719 70.269531 C 259.59375 67.675781 258.046875 65.160156 256.375 62.722656 C 254.703125 60.285156 252.914062 57.9375 251.003906 55.679688 C 249.097656 53.425781 247.078125 51.269531 244.953125 49.214844 Z M 244.953125 49.214844 " fill-opacity="1" fill-rule="nonzero"/><path fill="#eeeeee" d="M 221.121094 113.925781 C 221.121094 115.171875 221.058594 116.414062 220.9375 117.652344 C 220.816406 118.890625 220.632812 120.117188 220.390625 121.339844 C 220.148438 122.558594 219.84375 123.765625 219.484375 124.957031 C 219.121094 126.144531 218.703125 127.316406 218.226562 128.464844 C 217.75 129.613281 217.21875 130.738281 216.632812 131.835938 C 216.046875 132.933594 215.40625 134 214.714844 135.035156 C 214.023438 136.066406 213.285156 137.066406 212.496094 138.027344 C 211.703125 138.988281 210.871094 139.910156 209.988281 140.789062 C 209.109375 141.671875 208.1875 142.503906 207.226562 143.292969 C 206.265625 144.082031 205.265625 144.824219 204.230469 145.515625 C 203.195312 146.207031 202.128906 146.84375 201.03125 147.433594 C 199.933594 148.019531 198.808594 148.550781 197.660156 149.027344 C 196.511719 149.5 195.339844 149.921875 194.148438 150.28125 C 192.957031 150.644531 191.75 150.945312 190.53125 151.1875 C 189.308594 151.429688 188.082031 151.613281 186.839844 151.734375 C 185.601562 151.855469 184.359375 151.917969 183.117188 151.917969 C 181.871094 151.917969 180.628906 151.855469 179.390625 151.734375 C 178.152344 151.613281 176.921875 151.429688 175.703125 151.1875 C 174.480469 150.945312 173.277344 150.644531 172.085938 150.28125 C 170.894531 149.921875 169.722656 149.5 168.574219 149.027344 C 167.421875 148.550781 166.300781 148.019531 165.203125 147.433594 C 164.105469 146.84375 163.039062 146.207031 162.003906 145.515625 C 160.96875 144.824219 159.96875 144.082031 159.007812 143.292969 C 158.042969 142.503906 157.125 141.671875 156.242188 140.789062 C 155.363281 139.910156 154.527344 138.988281 153.738281 138.027344 C 152.949219 137.066406 152.207031 136.066406 151.515625 135.035156 C 150.824219 134 150.1875 132.933594 149.601562 131.835938 C 149.011719 130.738281 148.480469 129.613281 148.003906 128.464844 C 147.527344 127.316406 147.109375 126.144531 146.75 124.957031 C 146.386719 123.765625 146.085938 122.558594 145.84375 121.339844 C 145.601562 120.117188 145.417969 118.890625 145.296875 117.652344 C 145.171875 116.414062 145.113281 115.171875 145.113281 113.925781 C 145.113281 112.683594 145.171875 111.441406 145.296875 110.203125 C 145.417969 108.964844 145.601562 107.734375 145.84375 106.515625 C 146.085938 105.296875 146.386719 104.089844 146.75 102.898438 C 147.109375 101.707031 147.527344 100.539062 148.003906 99.390625 C 148.480469 98.238281 149.011719 97.117188 149.601562 96.019531 C 150.1875 94.921875 150.824219 93.855469 151.515625 92.820312 C 152.207031 91.785156 152.949219 90.789062 153.738281 89.828125 C 154.527344 88.863281 155.363281 87.945312 156.242188 87.0625 C 157.125 86.183594 158.042969 85.347656 159.007812 84.558594 C 159.96875 83.769531 160.96875 83.03125 162.003906 82.339844 C 163.039062 81.648438 164.105469 81.007812 165.203125 80.421875 C 166.300781 79.835938 167.421875 79.304688 168.574219 78.828125 C 169.722656 78.351562 170.894531 77.933594 172.085938 77.574219 C 173.277344 77.210938 174.480469 76.910156 175.703125 76.667969 C 176.921875 76.425781 178.152344 76.242188 179.390625 76.121094 C 180.628906 75.996094 181.871094 75.9375 183.117188 75.9375 C 184.359375 75.9375 185.601562 75.996094 186.839844 76.121094 C 188.082031 76.242188 189.308594 76.425781 190.53125 76.667969 C 191.75 76.910156 192.957031 77.210938 194.148438 77.574219 C 195.339844 77.933594 196.511719 78.351562 197.660156 78.828125 C 198.808594 79.304688 199.933594 79.835938 201.03125 80.421875 C 202.128906 81.007812 203.195312 81.648438 204.230469 82.339844 C 205.265625 83.03125 206.265625 83.769531 207.226562 84.558594 C 208.1875 85.347656 209.109375 86.183594 209.988281 87.0625 C 210.871094 87.945312 211.703125 88.863281 212.496094 89.828125 C 213.285156 90.789062 214.023438 91.785156 214.714844 92.820312 C 215.40625 93.855469 216.046875 94.921875 216.632812 96.019531 C 217.21875 97.117188 217.75 98.238281 218.226562 99.390625 C 218.703125 100.539062 219.121094 101.707031 219.484375 102.898438 C 219.84375 104.089844 220.148438 105.296875 220.390625 106.515625 C 220.632812 107.734375 220.816406 108.964844 220.9375 110.203125 C 221.058594 111.441406 221.121094 112.683594 221.121094 113.925781 Z M 221.121094 113.925781 " fill-opacity="1" fill-rule="nonzero"/><g fill="#689f38" fill-opacity="1"><g transform="translate(310.621626, 285.600713)"><g><path d="M 2.09375 0.15625 C 1.632812 0.15625 1.289062 0.0195312 1.0625 -0.25 C 0.832031 -0.519531 0.71875 -0.847656 0.71875 -1.234375 C 0.71875 -1.628906 0.835938 -1.957031 1.078125 -2.21875 C 1.316406 -2.488281 1.65625 -2.625 2.09375 -2.625 C 2.53125 -2.625 2.875 -2.507812 3.125 -2.28125 C 3.382812 -2.0625 3.515625 -1.726562 3.515625 -1.28125 C 3.515625 -0.832031 3.394531 -0.476562 3.15625 -0.21875 C 2.914062 0.03125 2.5625 0.15625 2.09375 0.15625 Z M 2.09375 0.15625 "/></g></g></g></svg>