<svg xmlns="http://www.w3.org/2000/svg" xmlns:xlink="http://www.w3.org/1999/xlink" width="500" zoomAndPan="magnify" viewBox="0 0 375 374.999991" height="500" preserveAspectRatio="xMidYMid meet" version="1.0"><defs><g/><clipPath id="38f5b10829"><path d="M 192 59 L 337.378906 59 L 337.378906 266 L 192 266 Z M 192 59 " clip-rule="nonzero"/></clipPath><clipPath id="0824c36890"><path d="M 54 11.335938 L 297 11.335938 L 297 358 L 54 358 Z M 54 11.335938 " clip-rule="nonzero"/></clipPath></defs><g clip-path="url(#38f5b10829)"><path fill="#02b0e9" d="M 192.757812 193.175781 C 192.757812 160.25 241.808594 87.140625 259.105469 62.371094 C 259.273438 62.128906 259.453125 61.902344 259.644531 61.683594 C 259.839844 61.464844 260.046875 61.257812 260.265625 61.066406 C 260.484375 60.871094 260.714844 60.691406 260.953125 60.527344 C 261.195312 60.363281 261.445312 60.210938 261.703125 60.074219 C 261.960938 59.941406 262.226562 59.820312 262.5 59.71875 C 262.773438 59.613281 263.050781 59.527344 263.335938 59.457031 C 263.621094 59.386719 263.90625 59.335938 264.195312 59.300781 C 264.484375 59.265625 264.777344 59.246094 265.070312 59.246094 C 265.359375 59.246094 265.652344 59.265625 265.941406 59.300781 C 266.230469 59.335938 266.519531 59.386719 266.800781 59.457031 C 267.085938 59.527344 267.363281 59.613281 267.636719 59.71875 C 267.910156 59.820312 268.175781 59.941406 268.433594 60.074219 C 268.691406 60.210938 268.941406 60.363281 269.183594 60.527344 C 269.421875 60.691406 269.652344 60.871094 269.871094 61.066406 C 270.089844 61.257812 270.296875 61.464844 270.492188 61.683594 C 270.6875 61.902344 270.867188 62.128906 271.03125 62.371094 C 288.34375 87.140625 337.378906 160.25 337.378906 193.175781 C 337.378906 194.359375 337.347656 195.542969 337.289062 196.726562 C 337.230469 197.910156 337.144531 199.089844 337.027344 200.269531 C 336.910156 201.445312 336.765625 202.621094 336.589844 203.792969 C 336.417969 204.964844 336.214844 206.128906 335.984375 207.292969 C 335.753906 208.453125 335.492188 209.605469 335.203125 210.753906 C 334.917969 211.90625 334.601562 213.046875 334.257812 214.179688 C 333.914062 215.3125 333.542969 216.433594 333.140625 217.550781 C 332.742188 218.664062 332.316406 219.769531 331.863281 220.863281 C 331.410156 221.957031 330.929688 223.039062 330.425781 224.109375 C 329.917969 225.179688 329.386719 226.234375 328.828125 227.28125 C 328.269531 228.324219 327.6875 229.355469 327.078125 230.371094 C 326.46875 231.386719 325.835938 232.386719 325.179688 233.371094 C 324.523438 234.355469 323.839844 235.320312 323.136719 236.273438 C 322.429688 237.222656 321.703125 238.15625 320.953125 239.070312 C 320.203125 239.988281 319.429688 240.882812 318.632812 241.757812 C 317.839844 242.636719 317.023438 243.492188 316.1875 244.332031 C 315.351562 245.167969 314.492188 245.984375 313.617188 246.777344 C 312.738281 247.574219 311.84375 248.347656 310.929688 249.097656 C 310.015625 249.847656 309.082031 250.578125 308.132812 251.28125 C 307.183594 251.988281 306.214844 252.667969 305.230469 253.328125 C 304.246094 253.984375 303.246094 254.617188 302.234375 255.226562 C 301.21875 255.835938 300.1875 256.417969 299.144531 256.976562 C 298.101562 257.535156 297.046875 258.066406 295.976562 258.574219 C 294.90625 259.078125 293.824219 259.558594 292.734375 260.011719 C 291.640625 260.464844 290.535156 260.890625 289.421875 261.289062 C 288.308594 261.6875 287.183594 262.058594 286.054688 262.402344 C 284.921875 262.746094 283.78125 263.0625 282.632812 263.347656 C 281.484375 263.636719 280.332031 263.894531 279.171875 264.128906 C 278.011719 264.359375 276.847656 264.558594 275.675781 264.734375 C 274.503906 264.90625 273.332031 265.050781 272.152344 265.167969 C 270.976562 265.285156 269.796875 265.371094 268.617188 265.429688 C 267.433594 265.488281 266.25 265.515625 265.070312 265.515625 C 263.886719 265.515625 262.703125 265.488281 261.523438 265.429688 C 260.339844 265.371094 259.160156 265.285156 257.984375 265.167969 C 256.804688 265.050781 255.632812 264.90625 254.460938 264.734375 C 253.292969 264.558594 252.125 264.359375 250.964844 264.128906 C 249.804688 263.894531 248.652344 263.636719 247.503906 263.347656 C 246.355469 263.0625 245.214844 262.746094 244.085938 262.402344 C 242.953125 262.058594 241.828125 261.6875 240.714844 261.289062 C 239.601562 260.890625 238.5 260.464844 237.40625 260.011719 C 236.3125 259.558594 235.230469 259.078125 234.160156 258.574219 C 233.089844 258.066406 232.035156 257.535156 230.992188 256.976562 C 229.949219 256.417969 228.917969 255.835938 227.90625 255.226562 C 226.890625 254.617188 225.890625 253.984375 224.90625 253.328125 C 223.921875 252.667969 222.957031 251.988281 222.003906 251.28125 C 221.054688 250.578125 220.121094 249.847656 219.207031 249.097656 C 218.292969 248.347656 217.398438 247.574219 216.519531 246.777344 C 215.644531 245.984375 214.785156 245.167969 213.949219 244.332031 C 213.113281 243.492188 212.296875 242.636719 211.503906 241.757812 C 210.707031 240.882812 209.9375 239.988281 209.183594 239.070312 C 208.433594 238.15625 207.707031 237.222656 207 236.273438 C 206.296875 235.320312 205.613281 234.355469 204.957031 233.371094 C 204.300781 232.386719 203.667969 231.386719 203.058594 230.371094 C 202.449219 229.355469 201.867188 228.324219 201.308594 227.28125 C 200.75 226.234375 200.21875 225.179688 199.710938 224.109375 C 199.207031 223.039062 198.726562 221.957031 198.273438 220.863281 C 197.820312 219.769531 197.394531 218.664062 196.996094 217.550781 C 196.597656 216.433594 196.222656 215.3125 195.878906 214.179688 C 195.535156 213.046875 195.222656 211.90625 194.933594 210.753906 C 194.644531 209.605469 194.386719 208.453125 194.152344 207.292969 C 193.921875 206.128906 193.71875 204.964844 193.546875 203.792969 C 193.371094 202.621094 193.226562 201.445312 193.109375 200.269531 C 192.992188 199.089844 192.90625 197.910156 192.847656 196.726562 C 192.789062 195.542969 192.757812 194.359375 192.757812 193.175781 Z M 192.757812 193.175781 " fill-opacity="1" fill-rule="nonzero"/></g><g clip-path="url(#0824c36890)"><path fill="#1cc7ff" d="M 54.101562 236.238281 C 54.101562 181.023438 136.417969 58.296875 165.46875 16.726562 C 165.746094 16.324219 166.050781 15.941406 166.375 15.578125 C 166.699219 15.210938 167.046875 14.867188 167.414062 14.542969 C 167.78125 14.21875 168.164062 13.917969 168.570312 13.640625 C 168.972656 13.363281 169.390625 13.109375 169.824219 12.882812 C 170.257812 12.65625 170.703125 12.457031 171.160156 12.285156 C 171.617188 12.109375 172.085938 11.964844 172.558594 11.847656 C 173.035156 11.730469 173.515625 11.644531 174 11.585938 C 174.488281 11.527344 174.976562 11.496094 175.464844 11.496094 C 175.953125 11.496094 176.441406 11.527344 176.925781 11.585938 C 177.414062 11.644531 177.894531 11.730469 178.367188 11.847656 C 178.84375 11.964844 179.308594 12.109375 179.765625 12.285156 C 180.226562 12.457031 180.671875 12.65625 181.105469 12.882812 C 181.539062 13.109375 181.957031 13.363281 182.359375 13.640625 C 182.761719 13.917969 183.148438 14.21875 183.515625 14.542969 C 183.882812 14.867188 184.226562 15.210938 184.554688 15.578125 C 184.878906 15.941406 185.179688 16.324219 185.460938 16.726562 C 214.535156 58.296875 296.824219 180.984375 296.824219 236.238281 C 296.824219 238.222656 296.777344 240.210938 296.679688 242.195312 C 296.582031 244.183594 296.4375 246.164062 296.242188 248.144531 C 296.046875 250.121094 295.804688 252.09375 295.511719 254.058594 C 295.21875 256.027344 294.882812 257.984375 294.492188 259.933594 C 294.105469 261.882812 293.671875 263.824219 293.1875 265.75 C 292.707031 267.679688 292.175781 269.59375 291.601562 271.496094 C 291.023438 273.398438 290.398438 275.289062 289.730469 277.160156 C 289.0625 279.03125 288.347656 280.886719 287.585938 282.722656 C 286.828125 284.558594 286.023438 286.375 285.171875 288.171875 C 284.324219 289.96875 283.429688 291.746094 282.496094 293.496094 C 281.558594 295.25 280.582031 296.980469 279.558594 298.683594 C 278.539062 300.390625 277.476562 302.070312 276.371094 303.722656 C 275.269531 305.375 274.125 307 272.941406 308.597656 C 271.757812 310.195312 270.539062 311.761719 269.277344 313.296875 C 268.019531 314.835938 266.722656 316.339844 265.386719 317.8125 C 264.054688 319.285156 262.683594 320.722656 261.28125 322.128906 C 259.875 323.535156 258.4375 324.90625 256.964844 326.242188 C 255.492188 327.578125 253.992188 328.875 252.453125 330.136719 C 250.917969 331.398438 249.355469 332.621094 247.757812 333.804688 C 246.164062 334.988281 244.539062 336.132812 242.890625 337.238281 C 241.238281 338.339844 239.558594 339.40625 237.855469 340.425781 C 236.152344 341.449219 234.425781 342.429688 232.671875 343.367188 C 230.921875 344.300781 229.148438 345.195312 227.351562 346.046875 C 225.558594 346.894531 223.742188 347.703125 221.90625 348.460938 C 220.070312 349.222656 218.21875 349.9375 216.347656 350.609375 C 214.480469 351.277344 212.59375 351.902344 210.695312 352.476562 C 208.792969 353.054688 206.878906 353.585938 204.953125 354.066406 C 203.027344 354.550781 201.089844 354.988281 199.140625 355.375 C 197.191406 355.761719 195.234375 356.101562 193.269531 356.394531 C 191.308594 356.6875 189.335938 356.929688 187.359375 357.125 C 185.382812 357.320312 183.402344 357.464844 181.417969 357.5625 C 179.433594 357.660156 177.449219 357.707031 175.464844 357.707031 C 173.476562 357.707031 171.492188 357.660156 169.507812 357.5625 C 167.523438 357.464844 165.546875 357.320312 163.570312 357.125 C 161.59375 356.929688 159.621094 356.6875 157.65625 356.394531 C 155.691406 356.101562 153.734375 355.761719 151.789062 355.375 C 149.839844 354.988281 147.902344 354.550781 145.976562 354.066406 C 144.050781 353.585938 142.136719 353.054688 140.234375 352.476562 C 138.332031 351.902344 136.449219 351.277344 134.578125 350.609375 C 132.707031 349.9375 130.855469 349.222656 129.019531 348.460938 C 127.1875 347.703125 125.371094 346.894531 123.574219 346.046875 C 121.78125 345.195312 120.007812 344.300781 118.253906 343.367188 C 116.503906 342.429688 114.773438 341.449219 113.070312 340.425781 C 111.367188 339.40625 109.691406 338.339844 108.039062 337.238281 C 106.386719 336.132812 104.765625 334.988281 103.167969 333.804688 C 101.574219 332.621094 100.007812 331.398438 98.472656 330.136719 C 96.9375 328.875 95.433594 327.578125 93.960938 326.242188 C 92.492188 324.90625 91.054688 323.535156 89.648438 322.128906 C 88.242188 320.722656 86.875 319.285156 85.539062 317.8125 C 84.207031 316.339844 82.910156 314.835938 81.648438 313.296875 C 80.390625 311.761719 79.167969 310.195312 77.984375 308.597656 C 76.800781 307 75.660156 305.375 74.554688 303.722656 C 73.453125 302.070312 72.390625 300.390625 71.367188 298.683594 C 70.347656 296.980469 69.367188 295.25 68.433594 293.496094 C 67.496094 291.746094 66.605469 289.96875 65.753906 288.171875 C 64.90625 286.375 64.101562 284.558594 63.339844 282.722656 C 62.582031 280.886719 61.867188 279.03125 61.195312 277.160156 C 60.527344 275.289062 59.90625 273.398438 59.328125 271.496094 C 58.75 269.59375 58.222656 267.679688 57.738281 265.75 C 57.257812 263.824219 56.820312 261.882812 56.433594 259.933594 C 56.046875 257.984375 55.707031 256.027344 55.414062 254.058594 C 55.125 252.09375 54.882812 250.121094 54.6875 248.144531 C 54.492188 246.164062 54.347656 244.183594 54.25 242.195312 C 54.152344 240.210938 54.101562 238.222656 54.101562 236.238281 Z M 54.101562 236.238281 " fill-opacity="1" fill-rule="nonzero"/></g><path fill="#02b0e9" d="M 272.96875 236.238281 C 272.972656 237.832031 272.933594 239.429688 272.855469 241.027344 C 272.777344 242.621094 272.660156 244.214844 272.503906 245.804688 C 272.347656 247.394531 272.152344 248.980469 271.917969 250.558594 C 271.6875 252.140625 271.414062 253.714844 271.101562 255.28125 C 270.792969 256.847656 270.441406 258.40625 270.054688 259.957031 C 269.667969 261.507812 269.242188 263.046875 268.78125 264.574219 C 268.316406 266.101562 267.816406 267.621094 267.28125 269.125 C 266.742188 270.628906 266.167969 272.117188 265.558594 273.59375 C 264.949219 275.070312 264.300781 276.53125 263.621094 277.976562 C 262.9375 279.421875 262.21875 280.847656 261.46875 282.257812 C 260.714844 283.664062 259.929688 285.054688 259.109375 286.425781 C 258.289062 287.796875 257.4375 289.144531 256.550781 290.472656 C 255.664062 291.800781 254.746094 293.109375 253.792969 294.390625 C 252.84375 295.675781 251.863281 296.933594 250.851562 298.167969 C 249.835938 299.40625 248.796875 300.613281 247.722656 301.796875 C 246.652344 302.980469 245.550781 304.140625 244.421875 305.269531 C 243.296875 306.398438 242.140625 307.5 240.957031 308.574219 C 239.773438 309.644531 238.566406 310.691406 237.332031 311.703125 C 236.097656 312.71875 234.839844 313.699219 233.558594 314.652344 C 232.277344 315.601562 230.972656 316.523438 229.644531 317.410156 C 228.320312 318.296875 226.972656 319.152344 225.601562 319.976562 C 224.234375 320.796875 222.84375 321.582031 221.4375 322.335938 C 220.03125 323.089844 218.605469 323.808594 217.160156 324.492188 C 215.71875 325.175781 214.261719 325.820312 212.785156 326.433594 C 211.3125 327.046875 209.824219 327.621094 208.320312 328.160156 C 206.816406 328.695312 205.300781 329.199219 203.773438 329.660156 C 202.246094 330.125 200.710938 330.550781 199.160156 330.941406 C 197.613281 331.328125 196.054688 331.679688 194.492188 331.988281 C 192.925781 332.300781 191.351562 332.574219 189.773438 332.808594 C 188.195312 333.042969 186.613281 333.238281 185.023438 333.394531 C 183.433594 333.550781 181.84375 333.667969 180.25 333.75 C 178.65625 333.828125 177.058594 333.867188 175.464844 333.867188 C 173.867188 333.867188 172.273438 333.828125 170.679688 333.75 C 169.085938 333.667969 167.492188 333.550781 165.90625 333.394531 C 164.316406 333.238281 162.734375 333.042969 161.152344 332.808594 C 159.574219 332.574219 158.003906 332.300781 156.4375 331.988281 C 154.871094 331.679688 153.316406 331.328125 151.765625 330.941406 C 150.21875 330.550781 148.679688 330.125 147.152344 329.660156 C 145.625 329.199219 144.109375 328.695312 142.609375 328.160156 C 141.105469 327.621094 139.617188 327.046875 138.140625 326.433594 C 136.667969 325.820312 135.207031 325.175781 133.765625 324.492188 C 132.324219 323.808594 130.898438 323.089844 129.492188 322.335938 C 128.082031 321.582031 126.695312 320.796875 125.324219 319.976562 C 123.957031 319.152344 122.609375 318.296875 121.28125 317.410156 C 119.953125 316.523438 118.648438 315.601562 117.367188 314.652344 C 116.085938 313.699219 114.828125 312.71875 113.59375 311.703125 C 112.363281 310.691406 111.152344 309.644531 109.972656 308.574219 C 108.789062 307.5 107.632812 306.398438 106.503906 305.269531 C 105.375 304.140625 104.277344 302.980469 103.203125 301.796875 C 102.132812 300.613281 101.089844 299.40625 100.078125 298.167969 C 99.066406 296.933594 98.085938 295.675781 97.132812 294.390625 C 96.183594 293.109375 95.265625 291.800781 94.378906 290.472656 C 93.492188 289.144531 92.636719 287.796875 91.816406 286.425781 C 91 285.054688 90.210938 283.664062 89.460938 282.257812 C 88.707031 280.847656 87.992188 279.421875 87.308594 277.976562 C 86.625 276.53125 85.980469 275.070312 85.371094 273.59375 C 84.757812 272.117188 84.1875 270.628906 83.648438 269.125 C 83.109375 267.621094 82.609375 266.101562 82.148438 264.574219 C 81.683594 263.046875 81.261719 261.507812 80.871094 259.957031 C 80.484375 258.40625 80.136719 256.847656 79.824219 255.28125 C 79.515625 253.714844 79.242188 252.140625 79.007812 250.558594 C 78.773438 248.980469 78.578125 247.394531 78.421875 245.804688 C 78.269531 244.214844 78.152344 242.621094 78.074219 241.027344 C 77.996094 239.429688 77.957031 237.832031 77.957031 236.238281 C 77.957031 226.328125 81.953125 211.824219 89.40625 193.707031 C 93.277344 195.132812 97.273438 195.789062 101.394531 195.675781 C 119.882812 195.675781 119.882812 185.410156 138.371094 185.410156 C 156.855469 185.410156 156.917969 195.675781 175.40625 195.675781 C 193.890625 195.675781 193.890625 185.410156 212.4375 185.410156 C 230.984375 185.410156 230.925781 195.675781 249.414062 195.675781 C 253.558594 195.765625 257.574219 195.089844 261.460938 193.644531 C 268.976562 211.824219 272.96875 226.328125 272.96875 236.238281 Z M 272.96875 236.238281 " fill-opacity="1" fill-rule="nonzero"/><path fill="#ffffff" d="M 224.507812 133.285156 C 224.703125 133.625 224.925781 133.941406 225.183594 134.238281 C 225.441406 134.535156 225.722656 134.804688 226.03125 135.042969 C 226.339844 135.285156 226.671875 135.492188 227.023438 135.667969 C 227.371094 135.84375 227.734375 135.984375 228.113281 136.085938 C 228.492188 136.191406 228.875 136.257812 229.265625 136.285156 C 229.65625 136.3125 230.046875 136.300781 230.4375 136.253906 C 230.824219 136.203125 231.203125 136.117188 231.578125 135.996094 C 231.949219 135.871094 232.304688 135.710938 232.644531 135.519531 C 232.984375 135.324219 233.304688 135.097656 233.597656 134.84375 C 233.894531 134.585938 234.164062 134.300781 234.402344 133.992188 C 234.644531 133.683594 234.851562 133.351562 235.027344 133 C 235.203125 132.652344 235.34375 132.285156 235.445312 131.910156 C 235.550781 131.53125 235.617188 131.144531 235.644531 130.753906 C 235.671875 130.363281 235.660156 129.972656 235.613281 129.585938 C 235.5625 129.195312 235.476562 128.816406 235.355469 128.441406 C 235.230469 128.070312 235.070312 127.714844 234.878906 127.375 C 227.757812 114.875 219.863281 101.699219 211.417969 88.214844 C 211.210938 87.882812 210.972656 87.574219 210.703125 87.289062 C 210.433594 87.003906 210.140625 86.75 209.820312 86.523438 C 209.5 86.292969 209.164062 86.101562 208.804688 85.941406 C 208.449219 85.78125 208.078125 85.65625 207.695312 85.566406 C 207.316406 85.480469 206.929688 85.429688 206.539062 85.417969 C 206.144531 85.40625 205.757812 85.433594 205.371094 85.5 C 204.984375 85.566406 204.609375 85.667969 204.242188 85.808594 C 203.875 85.945312 203.527344 86.121094 203.195312 86.328125 C 202.863281 86.535156 202.554688 86.773438 202.269531 87.042969 C 201.984375 87.3125 201.730469 87.609375 201.503906 87.925781 C 201.273438 88.246094 201.082031 88.585938 200.921875 88.941406 C 200.761719 89.300781 200.636719 89.671875 200.550781 90.050781 C 200.460938 90.433594 200.414062 90.820312 200.402344 91.214844 C 200.390625 91.605469 200.417969 91.996094 200.480469 92.382812 C 200.546875 92.769531 200.648438 93.144531 200.789062 93.511719 C 200.925781 93.878906 201.101562 94.226562 201.308594 94.558594 C 209.671875 107.898438 217.476562 120.933594 224.507812 133.285156 Z M 224.507812 133.285156 " fill-opacity="1" fill-rule="nonzero"/><path fill="#ffffff" d="M 143.714844 296.449219 L 215.277344 230.789062 C 215.570312 230.523438 215.828125 230.234375 216.0625 229.917969 C 216.292969 229.601562 216.492188 229.265625 216.65625 228.910156 C 216.824219 228.554688 216.953125 228.1875 217.046875 227.804688 C 217.140625 227.421875 217.195312 227.035156 217.210938 226.644531 C 217.230469 226.253906 217.207031 225.863281 217.148438 225.476562 C 217.089844 225.085938 216.992188 224.707031 216.859375 224.339844 C 216.722656 223.972656 216.554688 223.617188 216.351562 223.285156 C 216.148438 222.949219 215.914062 222.636719 215.648438 222.347656 C 215.382812 222.058594 215.09375 221.796875 214.777344 221.566406 C 214.460938 221.332031 214.125 221.132812 213.769531 220.96875 C 213.414062 220.804688 213.046875 220.671875 212.664062 220.582031 C 212.285156 220.488281 211.898438 220.433594 211.507812 220.414062 C 211.113281 220.398438 210.726562 220.421875 210.335938 220.480469 C 209.949219 220.539062 209.570312 220.636719 209.203125 220.773438 C 208.835938 220.90625 208.484375 221.078125 208.148438 221.28125 C 207.8125 221.484375 207.503906 221.71875 207.214844 221.984375 L 135.648438 287.644531 C 135.359375 287.910156 135.101562 288.203125 134.871094 288.519531 C 134.636719 288.835938 134.441406 289.171875 134.273438 289.527344 C 134.109375 289.882812 133.980469 290.25 133.886719 290.628906 C 133.796875 291.011719 133.742188 291.398438 133.722656 291.789062 C 133.707031 292.179688 133.730469 292.570312 133.789062 292.957031 C 133.847656 293.34375 133.945312 293.722656 134.078125 294.089844 C 134.214844 294.457031 134.382812 294.808594 134.585938 295.144531 C 134.789062 295.480469 135.023438 295.792969 135.289062 296.082031 C 135.550781 296.371094 135.84375 296.628906 136.160156 296.863281 C 136.472656 297.09375 136.808594 297.292969 137.164062 297.457031 C 137.519531 297.621094 137.886719 297.753906 138.265625 297.84375 C 138.648438 297.9375 139.035156 297.992188 139.425781 298.011719 C 139.816406 298.027344 140.207031 298.007812 140.59375 297.949219 C 140.980469 297.886719 141.355469 297.792969 141.726562 297.65625 C 142.09375 297.523438 142.445312 297.355469 142.777344 297.152344 C 143.113281 296.949219 143.425781 296.714844 143.714844 296.449219 Z M 143.714844 296.449219 " fill-opacity="1" fill-rule="nonzero"/><path fill="#ffffff" d="M 133.71875 238.324219 C 133.71875 238.910156 133.746094 239.496094 133.804688 240.082031 C 133.863281 240.664062 133.949219 241.242188 134.0625 241.820312 C 134.175781 242.394531 134.316406 242.960938 134.488281 243.523438 C 134.660156 244.085938 134.855469 244.636719 135.078125 245.179688 C 135.304688 245.71875 135.554688 246.25 135.832031 246.765625 C 136.105469 247.285156 136.40625 247.785156 136.734375 248.273438 C 137.058594 248.761719 137.40625 249.234375 137.777344 249.6875 C 138.152344 250.140625 138.542969 250.574219 138.957031 250.988281 C 139.371094 251.402344 139.804688 251.796875 140.257812 252.167969 C 140.710938 252.539062 141.183594 252.890625 141.667969 253.214844 C 142.15625 253.539062 142.660156 253.84375 143.175781 254.117188 C 143.691406 254.394531 144.222656 254.644531 144.761719 254.871094 C 145.304688 255.09375 145.855469 255.292969 146.414062 255.460938 C 146.976562 255.632812 147.542969 255.773438 148.117188 255.890625 C 148.695312 256.003906 149.273438 256.089844 149.855469 256.148438 C 150.4375 256.203125 151.023438 256.234375 151.609375 256.234375 C 152.195312 256.234375 152.78125 256.203125 153.363281 256.148438 C 153.945312 256.089844 154.523438 256.003906 155.097656 255.890625 C 155.675781 255.773438 156.242188 255.632812 156.800781 255.460938 C 157.363281 255.292969 157.914062 255.09375 158.457031 254.871094 C 158.996094 254.644531 159.527344 254.394531 160.042969 254.117188 C 160.558594 253.84375 161.0625 253.539062 161.550781 253.214844 C 162.035156 252.890625 162.507812 252.539062 162.960938 252.167969 C 163.414062 251.796875 163.847656 251.402344 164.261719 250.988281 C 164.675781 250.574219 165.066406 250.140625 165.4375 249.6875 C 165.8125 249.234375 166.160156 248.761719 166.484375 248.273438 C 166.8125 247.785156 167.113281 247.285156 167.386719 246.765625 C 167.664062 246.25 167.914062 245.71875 168.136719 245.179688 C 168.363281 244.636719 168.558594 244.085938 168.730469 243.523438 C 168.898438 242.960938 169.042969 242.394531 169.15625 241.820312 C 169.269531 241.242188 169.355469 240.664062 169.414062 240.082031 C 169.472656 239.496094 169.5 238.910156 169.5 238.324219 C 169.5 237.738281 169.472656 237.152344 169.414062 236.570312 C 169.355469 235.988281 169.269531 235.40625 169.15625 234.832031 C 169.042969 234.257812 168.898438 233.6875 168.730469 233.128906 C 168.558594 232.566406 168.363281 232.015625 168.136719 231.472656 C 167.914062 230.929688 167.664062 230.402344 167.386719 229.882812 C 167.113281 229.367188 166.8125 228.863281 166.484375 228.375 C 166.160156 227.890625 165.8125 227.417969 165.4375 226.964844 C 165.066406 226.511719 164.675781 226.078125 164.261719 225.664062 C 163.847656 225.25 163.414062 224.855469 162.960938 224.484375 C 162.507812 224.109375 162.035156 223.761719 161.550781 223.4375 C 161.0625 223.109375 160.558594 222.808594 160.042969 222.53125 C 159.527344 222.257812 158.996094 222.003906 158.457031 221.78125 C 157.914062 221.558594 157.363281 221.359375 156.800781 221.1875 C 156.242188 221.019531 155.675781 220.875 155.097656 220.761719 C 154.523438 220.648438 153.945312 220.5625 153.363281 220.503906 C 152.78125 220.445312 152.195312 220.417969 151.609375 220.417969 C 151.023438 220.417969 150.4375 220.445312 149.855469 220.503906 C 149.273438 220.5625 148.695312 220.648438 148.117188 220.761719 C 147.542969 220.875 146.976562 221.019531 146.414062 221.1875 C 145.855469 221.359375 145.304688 221.558594 144.761719 221.78125 C 144.222656 222.003906 143.691406 222.257812 143.175781 222.53125 C 142.660156 222.808594 142.15625 223.109375 141.667969 223.4375 C 141.183594 223.761719 140.710938 224.109375 140.257812 224.484375 C 139.804688 224.855469 139.371094 225.25 138.957031 225.664062 C 138.542969 226.078125 138.152344 226.511719 137.777344 226.964844 C 137.40625 227.417969 137.058594 227.890625 136.734375 228.375 C 136.40625 228.863281 136.105469 229.367188 135.832031 229.882812 C 135.554688 230.402344 135.304688 230.929688 135.078125 231.472656 C 134.855469 232.015625 134.660156 232.566406 134.488281 233.128906 C 134.316406 233.6875 134.175781 234.257812 134.0625 234.832031 C 133.949219 235.40625 133.863281 235.988281 133.804688 236.570312 C 133.746094 237.152344 133.71875 237.738281 133.71875 238.324219 Z M 151.609375 232.355469 C 152 232.355469 152.386719 232.394531 152.773438 232.472656 C 153.15625 232.546875 153.53125 232.660156 153.890625 232.8125 C 154.253906 232.960938 154.597656 233.144531 154.921875 233.363281 C 155.246094 233.582031 155.550781 233.828125 155.824219 234.105469 C 156.101562 234.382812 156.351562 234.683594 156.566406 235.007812 C 156.785156 235.335938 156.96875 235.679688 157.117188 236.042969 C 157.269531 236.402344 157.382812 236.777344 157.457031 237.160156 C 157.535156 237.546875 157.574219 237.933594 157.574219 238.324219 C 157.574219 238.71875 157.535156 239.105469 157.457031 239.488281 C 157.382812 239.875 157.269531 240.246094 157.117188 240.609375 C 156.96875 240.972656 156.785156 241.316406 156.566406 241.640625 C 156.351562 241.96875 156.101562 242.269531 155.824219 242.546875 C 155.550781 242.824219 155.246094 243.070312 154.921875 243.289062 C 154.597656 243.507812 154.253906 243.691406 153.890625 243.839844 C 153.53125 243.992188 153.15625 244.101562 152.773438 244.179688 C 152.386719 244.257812 152 244.292969 151.609375 244.292969 C 151.21875 244.292969 150.828125 244.257812 150.445312 244.179688 C 150.0625 244.101562 149.6875 243.992188 149.328125 243.839844 C 148.964844 243.691406 148.621094 243.507812 148.296875 243.289062 C 147.96875 243.070312 147.667969 242.824219 147.390625 242.546875 C 147.117188 242.269531 146.867188 241.96875 146.652344 241.640625 C 146.433594 241.316406 146.25 240.972656 146.097656 240.609375 C 145.949219 240.246094 145.835938 239.875 145.761719 239.488281 C 145.683594 239.105469 145.644531 238.71875 145.644531 238.324219 C 145.644531 237.933594 145.683594 237.546875 145.761719 237.160156 C 145.835938 236.777344 145.949219 236.402344 146.097656 236.042969 C 146.25 235.679688 146.433594 235.335938 146.652344 235.007812 C 146.867188 234.683594 147.117188 234.382812 147.390625 234.105469 C 147.667969 233.828125 147.96875 233.582031 148.296875 233.363281 C 148.621094 233.144531 148.964844 232.960938 149.328125 232.8125 C 149.6875 232.660156 150.0625 232.546875 150.445312 232.472656 C 150.828125 232.394531 151.21875 232.355469 151.609375 232.355469 Z M 151.609375 232.355469 " fill-opacity="1" fill-rule="nonzero"/><path fill="#ffffff" d="M 217.210938 280.109375 C 217.210938 279.523438 217.179688 278.9375 217.125 278.355469 C 217.066406 277.769531 216.980469 277.191406 216.867188 276.617188 C 216.75 276.039062 216.609375 275.472656 216.441406 274.910156 C 216.269531 274.351562 216.074219 273.796875 215.847656 273.257812 C 215.625 272.714844 215.375 272.183594 215.097656 271.667969 C 214.820312 271.152344 214.519531 270.648438 214.195312 270.160156 C 213.871094 269.671875 213.519531 269.203125 213.148438 268.75 C 212.777344 268.296875 212.382812 267.863281 211.96875 267.445312 C 211.554688 267.03125 211.121094 266.640625 210.667969 266.265625 C 210.214844 265.894531 209.746094 265.546875 209.257812 265.21875 C 208.769531 264.894531 208.269531 264.59375 207.753906 264.316406 C 207.234375 264.039062 206.707031 263.789062 206.164062 263.566406 C 205.625 263.339844 205.074219 263.144531 204.511719 262.972656 C 203.953125 262.804688 203.382812 262.660156 202.808594 262.546875 C 202.234375 262.433594 201.65625 262.347656 201.074219 262.289062 C 200.488281 262.230469 199.90625 262.203125 199.320312 262.203125 C 198.734375 262.203125 198.148438 262.230469 197.566406 262.289062 C 196.980469 262.347656 196.402344 262.433594 195.828125 262.546875 C 195.253906 262.660156 194.6875 262.804688 194.125 262.972656 C 193.566406 263.144531 193.011719 263.339844 192.472656 263.566406 C 191.929688 263.789062 191.402344 264.039062 190.886719 264.316406 C 190.367188 264.59375 189.867188 264.894531 189.378906 265.21875 C 188.890625 265.546875 188.421875 265.894531 187.96875 266.265625 C 187.515625 266.640625 187.082031 267.03125 186.667969 267.445312 C 186.253906 267.863281 185.859375 268.296875 185.488281 268.75 C 185.117188 269.203125 184.769531 269.671875 184.441406 270.160156 C 184.117188 270.648438 183.816406 271.152344 183.539062 271.667969 C 183.265625 272.183594 183.015625 272.714844 182.789062 273.257812 C 182.566406 273.796875 182.367188 274.351562 182.199219 274.910156 C 182.027344 275.472656 181.886719 276.039062 181.769531 276.617188 C 181.65625 277.191406 181.570312 277.769531 181.515625 278.355469 C 181.457031 278.9375 181.425781 279.523438 181.425781 280.109375 C 181.425781 280.695312 181.457031 281.28125 181.515625 281.863281 C 181.570312 282.449219 181.65625 283.027344 181.769531 283.601562 C 181.886719 284.179688 182.027344 284.746094 182.199219 285.308594 C 182.367188 285.867188 182.566406 286.421875 182.789062 286.960938 C 183.015625 287.503906 183.265625 288.035156 183.539062 288.550781 C 183.816406 289.070312 184.117188 289.570312 184.441406 290.058594 C 184.769531 290.546875 185.117188 291.015625 185.488281 291.46875 C 185.859375 291.921875 186.253906 292.355469 186.667969 292.773438 C 187.082031 293.1875 187.515625 293.582031 187.96875 293.953125 C 188.421875 294.324219 188.890625 294.671875 189.378906 295 C 189.867188 295.324219 190.367188 295.625 190.886719 295.902344 C 191.402344 296.179688 191.929688 296.429688 192.472656 296.652344 C 193.011719 296.878906 193.566406 297.074219 194.125 297.246094 C 194.6875 297.417969 195.253906 297.558594 195.828125 297.671875 C 196.402344 297.789062 196.980469 297.875 197.566406 297.929688 C 198.148438 297.988281 198.734375 298.015625 199.320312 298.015625 C 199.90625 298.015625 200.488281 297.988281 201.074219 297.929688 C 201.65625 297.875 202.234375 297.789062 202.808594 297.671875 C 203.382812 297.558594 203.953125 297.417969 204.511719 297.246094 C 205.074219 297.074219 205.625 296.878906 206.164062 296.652344 C 206.707031 296.429688 207.234375 296.179688 207.753906 295.902344 C 208.269531 295.625 208.769531 295.324219 209.257812 295 C 209.746094 294.671875 210.214844 294.324219 210.667969 293.953125 C 211.121094 293.582031 211.554688 293.1875 211.96875 292.773438 C 212.382812 292.355469 212.777344 291.921875 213.148438 291.46875 C 213.519531 291.015625 213.871094 290.546875 214.195312 290.058594 C 214.519531 289.570312 214.820312 289.070312 215.097656 288.550781 C 215.375 288.035156 215.625 287.503906 215.847656 286.960938 C 216.074219 286.421875 216.269531 285.867188 216.441406 285.308594 C 216.609375 284.746094 216.75 284.179688 216.867188 283.601562 C 216.980469 283.027344 217.066406 282.449219 217.125 281.863281 C 217.179688 281.28125 217.210938 280.695312 217.210938 280.109375 Z M 199.320312 286.078125 C 198.925781 286.078125 198.539062 286.039062 198.15625 285.964844 C 197.769531 285.886719 197.398438 285.773438 197.035156 285.625 C 196.675781 285.472656 196.332031 285.289062 196.003906 285.074219 C 195.679688 284.855469 195.378906 284.609375 195.101562 284.332031 C 194.824219 284.054688 194.578125 283.75 194.359375 283.425781 C 194.144531 283.101562 193.957031 282.757812 193.808594 282.394531 C 193.660156 282.03125 193.546875 281.660156 193.46875 281.273438 C 193.394531 280.890625 193.355469 280.5 193.355469 280.109375 C 193.355469 279.71875 193.394531 279.328125 193.46875 278.945312 C 193.546875 278.5625 193.660156 278.1875 193.808594 277.824219 C 193.957031 277.464844 194.144531 277.121094 194.359375 276.792969 C 194.578125 276.46875 194.824219 276.164062 195.101562 275.890625 C 195.378906 275.613281 195.679688 275.363281 196.003906 275.144531 C 196.332031 274.929688 196.675781 274.746094 197.035156 274.59375 C 197.398438 274.445312 197.769531 274.332031 198.15625 274.253906 C 198.539062 274.179688 198.925781 274.140625 199.320312 274.140625 C 199.710938 274.140625 200.097656 274.179688 200.480469 274.253906 C 200.867188 274.332031 201.238281 274.445312 201.601562 274.59375 C 201.960938 274.746094 202.304688 274.929688 202.632812 275.144531 C 202.957031 275.363281 203.257812 275.613281 203.535156 275.890625 C 203.8125 276.164062 204.058594 276.46875 204.277344 276.792969 C 204.496094 277.121094 204.679688 277.464844 204.828125 277.824219 C 204.976562 278.1875 205.089844 278.5625 205.167969 278.945312 C 205.246094 279.328125 205.28125 279.71875 205.28125 280.109375 C 205.28125 280.5 205.246094 280.890625 205.167969 281.273438 C 205.089844 281.660156 204.976562 282.03125 204.828125 282.394531 C 204.679688 282.757812 204.496094 283.101562 204.277344 283.425781 C 204.058594 283.75 203.8125 284.054688 203.535156 284.332031 C 203.257812 284.609375 202.957031 284.855469 202.632812 285.074219 C 202.304688 285.289062 201.960938 285.472656 201.601562 285.625 C 201.238281 285.773438 200.867188 285.886719 200.480469 285.964844 C 200.097656 286.039062 199.710938 286.078125 199.320312 286.078125 Z M 199.320312 286.078125 " fill-opacity="1" fill-rule="nonzero"/><path fill="#ffffff" d="M 247.027344 148.789062 C 247.027344 149.179688 246.992188 149.566406 246.914062 149.953125 C 246.835938 150.335938 246.722656 150.710938 246.574219 151.074219 C 246.425781 151.433594 246.242188 151.777344 246.023438 152.105469 C 245.804688 152.429688 245.558594 152.730469 245.28125 153.007812 C 245.003906 153.285156 244.703125 153.535156 244.378906 153.75 C 244.050781 153.96875 243.707031 154.152344 243.347656 154.304688 C 242.984375 154.453125 242.613281 154.566406 242.226562 154.644531 C 241.84375 154.71875 241.457031 154.757812 241.066406 154.757812 C 240.671875 154.757812 240.285156 154.71875 239.902344 154.644531 C 239.515625 154.566406 239.144531 154.453125 238.78125 154.304688 C 238.421875 154.152344 238.078125 153.96875 237.75 153.75 C 237.425781 153.535156 237.125 153.285156 236.847656 153.007812 C 236.570312 152.730469 236.324219 152.429688 236.105469 152.105469 C 235.886719 151.777344 235.703125 151.433594 235.554688 151.074219 C 235.40625 150.710938 235.292969 150.335938 235.214844 149.953125 C 235.140625 149.566406 235.101562 149.179688 235.101562 148.789062 C 235.101562 148.394531 235.140625 148.007812 235.214844 147.625 C 235.292969 147.238281 235.40625 146.867188 235.554688 146.503906 C 235.703125 146.140625 235.886719 145.796875 236.105469 145.472656 C 236.324219 145.144531 236.570312 144.84375 236.847656 144.566406 C 237.125 144.289062 237.425781 144.042969 237.75 143.824219 C 238.078125 143.605469 238.421875 143.421875 238.78125 143.273438 C 239.144531 143.125 239.515625 143.011719 239.902344 142.933594 C 240.285156 142.855469 240.671875 142.820312 241.066406 142.820312 C 241.457031 142.820312 241.84375 142.855469 242.226562 142.933594 C 242.613281 143.011719 242.984375 143.125 243.347656 143.273438 C 243.707031 143.421875 244.050781 143.605469 244.378906 143.824219 C 244.703125 144.042969 245.003906 144.289062 245.28125 144.566406 C 245.558594 144.84375 245.804688 145.144531 246.023438 145.472656 C 246.242188 145.796875 246.425781 146.140625 246.574219 146.503906 C 246.722656 146.867188 246.835938 147.238281 246.914062 147.625 C 246.992188 148.007812 247.027344 148.394531 247.027344 148.789062 Z M 247.027344 148.789062 " fill-opacity="1" fill-rule="nonzero"/><g fill="#ffffff" fill-opacity="1"><g transform="translate(11.071549, 338.262194)"><g><path d="M 2.09375 0.15625 C 1.632812 0.15625 1.289062 0.0195312 1.0625 -0.25 C 0.832031 -0.519531 0.71875 -0.847656 0.71875 -1.234375 C 0.71875 -1.628906 0.835938 -1.957031 1.078125 -2.21875 C 1.316406 -2.488281 1.65625 -2.625 2.09375 -2.625 C 2.53125 -2.625 2.875 -2.507812 3.125 -2.28125 C 3.382812 -2.0625 3.515625 -1.726562 3.515625 -1.28125 C 3.515625 -0.832031 3.394531 -0.476562 3.15625 -0.21875 C 2.914062 0.03125 2.5625 0.15625 2.09375 0.15625 Z M 2.09375 0.15625 "/></g></g></g></svg>